<svg xmlns="http://www.w3.org/2000/svg" viewBox="0 0 1200 600"  xmlns:v="https://vecta.io/nano"><clipPath id="A"><path d="M0 0v150h700v150H600zm0 300v50h300V0h300z"/></clipPath><path fill="#012169" d="M0 0h1200v600H0z"/><g fill="none"><path d="M0 0l600 300m0-300L0 300" stroke="#fff" stroke-width="60"/><path d="M0,0 600,300M600,0 0,300" clip-path="url(#A)" stroke="#e4002b" stroke-width="40"/><path d="M0,150H700M300,0V350" stroke="#fff" stroke-width="100"/><path d="M0,150H700M300,0V350" stroke="#e4002b" stroke-width="60"/></g><path d="M0 300h600V0h600v600H0z" fill="#012169"/><circle cx="900" cy="300" r="133.3" fill="#fff"/><path d="M949.17 360.6c-2.131 1.375-4.297 2.902-4.104 5.716a7.74 7.74 0 0 1-1.612-8.501c-2.771.372-4.139 2.776-4.69 5.276-.673-2.903-1.946-7.645 1.905-8.794-.512-2.481-2.932 1.279-3.091 2.602-1.17 4.76-1.069-.874-1.306-2.895-.18-1.923 1.083-3.608 2.638-4.397 1.891-3.754 6.769-2.451 10.113-2.198 2.431.299 5.941-.534 5.486-3.669.295-4.23.096-10.429-4.9-11.721-3.359-1.223-3.605 1.23-2.994 3.982.691 2.954-.597 1.982-2.429 1.588-1.745.083.517 3.089-1.421 4.184-.76 1.23-3.872-2.493-4.001-.52-.336 2.167-1.435 5.328-4.25 4.397-.879 1.77-1.122 3.92-2.492 5.569-2.379 3.555-6.375 5.381-10.113 6.889-3.349.139-4.129 3.974-3.957 6.742-1.374-2.705-3.83-6.459-1.173-9.087-2.532.68-3.931 3.33-2.972 5.866 1.139 3.597-2.011-1.214-2.744-2.495-1.574-1.346.635-5.156-.733-4.837-1.978 1.289-1.862 3.808-2.052 6.009-.879-2.622-3.093-6.463-.146-8.501.082-4.647 5.645-5.288 9.234-5.13 3.182.807 3.95-3.053 6.009-4.69 1.646-2.809 4.505-4.895 5.863-7.768.53-4.284-5.222-5.049-7.035-8.208-1.652-1.078-1.063-4.504-3.078-4.397-5.292-.119-10.526 1.286-15.389 3.078-3.329 1.412-7.208-.554-10.406.44 1.141 1.765-1.996 5.717-2.491 2.198-1.051-1.132-.911 5.3-2.638 2.345-2.331-.205.511 2.835-1.062 4.221-.267 2.215-3.104-2.59-3.628-.41.574 1.971-.637 5.924-2.492 2.931-2.655-1.584-.96 1.41-1.754 2.917-1.583 4.028-1.124.43-2.936-1.012.739 1.179.102 5.38-1.319 3.664-2.405-.306-2.18.736-1.319 2.492.039 4.069-1.523.83-3.224 1.905 1.666 2.179-.52 3.666-2.345 2.198-3.486.587-5.351 4.398-5.716 7.768-2.362 3.478-6.972 5.219-10.992 3.811-1.8 1.572-1.638 4.864-4.397 5.569-3.175 1.714-1.781-.407-1.759-2.638.368-2.692-1.942-2.12-3.102-.415-1.565 1.315-2.219 5.305-3.049 1.309-.855-1.769-.004-3.798.435-5.29-.708-1.986-2.486 2.118-2.766 3.315-.48 1.933-1.587-3.509-1.191-4.634 1.753-2.953 2.57-7.66 6.595-8.647 3.718-.185 7.52.125 11.285 0 1.448-3.687 2.815-7.397 3.572-11.247.608-3.306 3.417-5.866 2.731-9.418-.093-1.881-3.194 3.045-2.198-1.612-.162-1.171-4.967 5.061-3.014.965.824-1.542.968-5.091-.48-1.925-1.899 2.499-5.181 2.95-8.085 3.305 2.207-1.267 5.389-3.274 5.13-5.716-1.331 1.246-4.262 5.486-4.028 1.316-.364-2.451-.995-5.655-1.395-7.618-2.663.764-5.368.202-8.061-.293 1.434-.692 3.785-4.008.879-3.957-2.69.873-3.466-1.18-5.846-.34-1.442-1.473-4.123-.842-6.172-.393.984-3.026-2.765-1.868-2.785.293-1.59 1.365-1.471 4.198-3.957 4.69-1.072.532-5.628 2.285-4.399.931 1.887-.787 2.732-5.329.192-4.167-1.855 1.444-2.63 3.391-2.242 5.728-2.097-2.007-4.009-5.156-2.198-7.914-1.994.872-3.383 2.486-4.397 4.397-.671-3.308-1.935-7.488.733-10.113-2.423.754-2.881 3.982-3.811 6.156-.024-3.373-1.536-8.423 2.052-10.406 2.155-.824 2.935-3.73 5.276-4.69 3.175-2.624 7.93-2.013 11.139.293 1.922.794 3.753.94 5.863.733 4.341-.214 8.894.226 12.898 2.052.277-1.424 3.819-3.853 1.026-3.957-3.211-.653.533-2.619.879-4.397 1.534-2.527-.312-5.142.293-7.768.805-2.694 4.361-3.013 5.716-5.276.936-2.504-2.299-.339-3.518-.44-2.052 1.231-5.312-.851-3.371-3.078.065-2.193-1.4-5.896-4.104-4.69-3.807.386-8.534-.46-9.673-4.69-.648-2.2 1.12-5.86 3.664-3.811 2.415 1.495 3.908 4.608 7.182 3.811 2.041-.12 4.017-.546 6.009-1.026-1.524-1.499-3.359-3.123-5.569-1.905-3.406.828-5.647-2.719-4.69-5.716-.069-1.904.176-5.668 3.078-4.543 2.54-.286-2.71-1.196-2.492-2.785.521-2.849 4.529-1.91 6.449-3.371 3.72-1.677 6.511-5.983 11.139-5.423 2.301-2.228 6.019-2.16 9.087-2.345-.481-2.393.458-4.867 1.759-6.888 1.324 1.257 2.484 5.174 4.25 4.104 1.949-1.411-1.93-2.946 1.612-3.371 2.761-.748 4.727 2.087 4.837 4.543 1.894-.09 3.831 1.243 3.957 3.224 2.423-2.724 6.401-2.073 9.38-.733-.789.845-2.318 5.517-.586 3.078 1.226-1.887 5.889-1.338 4.69 1.319-.541 3.468 1.675-.789 3.504.728 2.984-.138-.788 1.916.6 3.376 1.862 1.194 1.951 4.06 4.397 4.837 1.974.815 4.453 1.468 1.612 3.371-2.178 1.28-3.202 1.477-.586 3.224 2.793 2.573.145 7.381 3.957 9.233 1.279 1.449 4.993 1.085 2.198 3.224-1.685 1.286-2.875 1.788-1.617 4.09.133 1.612 3.846 3.338 2.116 4.189-1.738.632-3.835 1.555-5.482.368-1.702 3.06 2.215 4.811 4.693 4.91 12.649-2.164 25.428-4.924 38.099-7.657 6.277-1.533 13.332-.325 18.089 4.346 3.308 2.939 8.625.159 8.678-4.091.931-5.128-4.72-8.241-9.198-7.724-10.395-1.003-20.871-.917-31.195-2.535-6.143-1.291-11.595-6.05-12.399-12.458-1.371-6.74 1.783-14.692 8.735-16.854 6.843-2.76 14.663-2.166 21.252 1.026 4.528.754 8.569-1.735 12.604-3.371 4.574-1.56 9.616.536 12.165 4.543 2.595-1.603 5.846-.822 8.501.293-2.167.993-4.844 1.803-6.156 3.811 1.624 1.811 3.353 3.775-.293 3.518-2.136.45-4.601.746-6.009 2.638-6.153.059-13.067-.135-17.881-4.397-3.645.129-6.934-1.545-10.259-2.638-5.12-.783-12.559-.492-14.363 5.423-1.475 3.816-.526 8.597 3.371 10.553 7.716 3.793 16.697 2.757 25.062 3.371 7.893.516 16.925.804 23.01 6.595 4.498 4.396 4.034 11.831.065 16.413-2.023 2.457-4.49 4.551-7.246 6.158 1.867 5.11 5.662 10.255 3.664 15.829-.063 2.722-3.647 3.948-3.078 6.742-.27 3.937-1.865 8.058-5.276 10.259 3.249 1.621 1.709 2.044-.249 3.744-.836 1.215 3.198.984 3.847 2.66 3.102 2.136-1.042.949-2.279 2.096.839.322 3.06 5.585-.147 4.397-2.973-.156-.496 2.675-1.466 4.25-.931 3.094-4.099 5.532-4.104 9.087-.677 3.703-3.199 8.426-7.63 7.475-2.077-.541-3.669 2.148-6 1.905z"/><g fill="#e4002b"><path d="M971.034 292.025c14.656-8.647 13.337-21.546 1.173-25.943-9.087-2.931-18.028-2.199-27.115-2.931-12.165-.44-17.149-3.224-18.614-8.208-.879-10.846 6.009-13.337 16.709-11.872 2.785 1.612 5.863 2.492 9.38 2.638 3.078 2.785 8.061 4.544 17.295 4.25 1.905-2.199 4.983-2.345 7.768-2.785-.733-.879-1.319-1.759-2.052-2.638.586-1.319 2.345-2.492 5.13-3.811-3.224-1.173-5.13-.44-6.889.586-3.811-5.863-9.087-6.889-15.976-2.785-2.931 1.173-5.863 1.759-8.648 1.466-4.983-2.638-9.967-3.224-14.95-2.638-10.26 1.466-14.95 6.742-14.364 15.829.586 8.208 5.716 13.045 15.536 14.364l29.899 2.052c13.337 1.466 6.889 19.64-2.638 12.604-5.716-5.276-11.286-4.983-17.001-4.104l-21.546 4.69-16.416 3.078c-5.57-.586-7.475-2.785-5.423-6.595 1.026 1.173 2.931 1.173 5.423 0-2.492-2.492-3.371-4.983-2.785-7.475.879 1.466 1.905-.293 2.785-1.466-2.931-.879-4.69-2.638-5.423-5.13.44-4.25-1.319-6.889-5.423-8.061 2.638-.147 4.544-1.173 5.716-2.785-2.785-1.173-5.276-2.345-5.716-4.983-1.905-1.319-2.345-2.785-1.173-4.25-2.638-.879-3.664.147-3.224 3.078-1.026-1.905-1.466-3.811-1.026-5.716-2.345-1.612-4.104 0-5.57 2.931-.44-1.905-.147-3.811.879-5.716-4.983-2.199-7.182-.293-9.234 2.199.733-3.078-.44-4.544-3.664-4.544-.586-3.957-2.345-5.423-5.13-3.957 1.319 1.173.733 2.492-1.759 3.664-1.026-1.466-2.052-2.931-3.224-4.25-1.319 2.052-1.319 4.104-1.026 6.302-5.13 0-8.354.733-9.527 2.199-2.199 0-4.397.44-6.595 2.345-1.466 1.466-3.224 2.492-5.276 3.518l-4.837 1.319c-1.173 1.026-.147 1.759 3.078 3.224.586.879-.733 1.612-2.492 1.173-1.466-.586-1.612 1.759-1.759 3.957-.293 3.078.147 5.716 4.837 4.983 3.371-1.759 4.397 3.518 7.915 2.492-5.276 1.466-10.26 2.638-13.045 1.173-4.837-5.423-6.302-4.397-6.302-.586.879 3.224 3.078 5.57 11.286 4.397 2.052 1.905 2.931 3.957 2.492 6.009-1.026 1.466-.586 2.199 1.759 2.199 1.466-.293 2.931-.733 4.25-1.026 1.173 0 1.466.879.586 2.785-1.319 1.026-2.638 1.905-3.957 2.931-2.199.879-1.759 3.518-.879 6.302-.44 2.638-1.466 4.69-2.931 6.302 1.173.733 2.199.879 3.224.586l-3.518 5.13c-5.423-2.492-10.992-2.345-16.562-1.905-1.026-.44-1.905-.879-2.931-1.173-5.57-3.518-9.82-1.466-13.485 2.785-1.173 1.612-1.173 3.078 0 4.69.147 2.052.293 4.25 4.25 4.837.293 1.905 1.026 3.518 5.276 2.052.293 1.759 1.612 2.345 3.957 1.759 1.319-1.173 2.199-2.492 2.638-4.104 2.492-.44 3.518 0 3.078 1.466 3.078-.586 4.837-.293 5.57.586 1.612-.586 2.638-.44 2.785.586 4.397-.586 4.25.147 4.983.586.44 1.173 0 2.199-1.466 3.371 2.638.586 4.983.733 7.182-.293l1.759 9.527c1.173-1.026 2.492-2.199 3.664-4.25.44 3.518-.586 5.423-2.638 6.595 3.224-.44 5.13-2.785 6.449-6.156.293 2.052.586 3.957 0 5.57 1.173-1.026 1.759-2.199 1.612-3.518.733 1.319 1.173 2.785 1.173 4.104 1.612-1.319 1.319-2.492 1.466-3.811.586 2.785 1.173 5.57.293 8.354-1.905 3.224-2.785 6.302-3.224 9.234l-2.785 8.061h-9.234c-3.664-.733-5.716 1.466-6.889 4.837-1.173 1.612-.586 2.638 2.052 2.931 0 .733.147 1.319.586 1.612.44 1.905 2.345 1.759 4.25 1.466 2.492 1.759 4.544 1.466 6.302-.879 4.397 1.319 7.915.147 10.7-3.371.733-3.664 1.759-5.863 3.078-6.302 1.759-2.345 3.518-2.052 5.276-1.173.44-.733.293-1.319-.586-2.052 1.026-1.759 2.052-1.905 3.078-.586.733-1.612.147-2.785-1.173-3.664 2.052-1.173 3.371-1.319 4.104-.586.586-1.026.44-2.638-.293-4.69 1.319.44 2.492 1.173 2.785 2.931 1.026-1.612 1.026-3.078 0-4.25 1.466-.733 2.931-.293 4.397 1.026.733-1.466.733-3.078 0-4.544 1.612.147 3.078.293 3.957 1.466.879-1.905.293-3.224-.586-4.397 2.199-.293 3.224-.293 3.224 0 1.173-1.466 0-2.052-.586-2.785 2.052-.293 3.224.293 3.518 1.466 1.466-1.612 1.319-2.638-.586-3.518 1.759-.147 3.518-.147 5.423-.293 4.104.879 6.302.293 8.354-.586 4.69-1.759 9.673-2.931 15.536-2.492.586 2.931 2.199 5.423 5.13 7.475 4.837 2.785 5.423 5.716 2.052 8.794-2.785 3.371-5.423 6.742-8.061 10.113-6.742-.44-10.406.733-10.992 3.371-.44 1.612.44 2.492 2.638 2.638-.147 2.638 4.104 3.518 5.423 1.173.586 1.612 1.466 3.078 3.518 2.638 1.319.733 2.345 0 3.371-.879 3.957-1.026 7.182-3.811 9.527-8.941-.147-2.199.733-2.931 2.785-2.345 1.759-1.173 1.905-3.371 2.052-5.423 1.759.586 3.224 1.173 4.104 1.759 1.319-1.759.733-2.931 0-4.104 2.052-.586 2.931-.293 3.664 0 0-1.905-.147-3.957-.293-6.009 5.863-.733 10.26 1.319 9.527 12.898 0 3.957-3.664 4.104-7.768 3.811-2.931-.586-5.863-.733-7.768 1.466-.147 1.319-.147 2.638 1.759 3.957 0 2.638.147 2.492 2.492 3.811 1.173 2.785 1.466 2.345 4.397 2.785 2.638-.147 4.104-1.173 5.423-2.199 7.475 2.052 7.915-5.276 9.234-10.113l3.078-4.837c.44-1.466.733-2.931-.293-4.397 1.173-1.173 2.345-1.612 3.518-1.173.44-2.345-.879-3.078-2.638-3.371 1.319-1.173 2.785-1.759 4.104-1.759-1.612-1.759-3.518-2.345-5.423-2.052.879-1.612 1.759-3.078 3.078-3.371-1.026-1.173-2.052-1.466-3.371-1.173 5.423-2.785 6.889-7.475 6.889-12.898 2.931-2.785 4.25-6.449 3.078-11.579l-3.957-9.087zm-26.967 66.541c-.879 2.199-.733 4.25.586 6.009.147-1.319 1.466-2.638 3.518-3.957-2.052.147-3.518-.586-4.104-2.052zm-3.369-3.525c-1.905.586-2.345 2.492-1.759 5.57.44-1.466 1.612-2.638 3.664-3.224-1.759-.293-2.492-1.026-1.905-2.345zm-1.763-4.541c-2.052.733-2.052 3.224-1.759 5.863.44-1.466 1.173-2.931 2.785-3.664-.879-.586-1.173-1.319-1.026-2.199z"/><path d="M917.1 356.659c-1.319 1.026-1.173 2.931.44 5.716 0-1.905.879-3.371 2.345-4.25-1.173-.147-2.199-.44-2.785-1.466zm-5.713-1.327c-.733 1.466-.147 3.371 1.612 5.423-.44-1.466 0-2.931 1.319-4.544-1.026.293-1.905 0-2.931-.879zm-3.079-2.779c-1.173.879-1.173 2.492-.44 4.69.147-1.173.733-2.492 2.199-3.664-.586-.147-1.173 0-1.759-1.026zm-62.737 8.792c.44 1.319.586 2.638 0 4.25 2.199-.44 3.371-1.905 3.957-3.957-1.319.44-2.638.586-3.957-.293zm-5.277-2.053c-1.026 1.319-1.173 3.078-.147 5.276.44-1.173 1.466-2.345 2.931-3.518-1.466 0-2.492-.44-2.785-1.759zm-3.37-2.924c-1.026.586-.879 2.345-.293 4.397.44-1.759 1.319-2.785 2.345-3.518-.586-.147-1.319-.293-2.052-.879zm-19.346-42.799c1.026 1.173.147 2.492-.879 3.664 3.078-.733 4.69-1.759 4.983-3.078-1.319.44-2.638.293-4.104-.586zm-5.568-2.198c-1.466 1.759-1.173 3.811.586 6.009 0-1.319.879-2.785 2.638-4.397-1.466 0-2.638-.44-3.224-1.612zm-4.396-4.696c.586 1.612 1.319 3.078 3.518 3.957-1.905.879-3.224 2.052-4.104 3.371-.733-3.518-.879-6.156.586-7.328zm-1.172-4.832c-2.199.586-2.638 3.224-2.345 6.742.586-1.905 1.759-3.078 3.224-3.664-.733-1.026-.879-2.052-.879-3.078z"/></g><path d="M868.288 261.678c2.199 3.078 3.518 6.156 3.957 9.234 0-4.397-1.319-7.475-3.957-9.234zm8.802-9.373c3.371 3.224 6.156 6.302 7.915 9.38-1.466-4.837-4.397-7.622-7.915-9.38zm-4.396 5.422c3.664 4.69 6.009 9.967 6.156 16.122 1.173-8.501-1.905-12.898-6.156-16.122zm-2.053 2.924c3.811 4.69 5.57 9.82 4.544 15.389 1.612-7.622 0-12.752-4.544-15.389zm-16.319-16.63c-.693.05-1.141.262-1.883.509-1.026 4.25 4.881 4.692 7.226 2.493.481-.435.761-.815.916-1.12a1.91 1.91 0 0 0 .102-.254c.008-.04.048-.115.051-.153s-.047-.119-.051-.153c-.002-.011.002-.04 0-.051-.012-.043-.03-.114-.051-.153-.011-.019-.038-.084-.051-.102-.007-.008-.043-.042-.051-.051s-.042-.043-.051-.051c-.036-.032-.11-.073-.153-.102-.011-.007-.04-.044-.051-.051-.035-.02-.114-.033-.153-.051-.89-.396-2.553-.431-3.409-.509-1.154-.192-1.853-.243-2.392-.204zm.204.509c1.157-.101 2.763.094 4.478.458-1.536.54-4.549 1.105-5.394 1.527l-.102.051c-.309-.309-.518-.578-.611-.814l-.051-.153c-.004-.024.001-.079 0-.102v-.102c.002-.021-.005-.081 0-.102.008-.03.037-.073.051-.102l.051-.102c.006-.008.044-.042.051-.051a1.21 1.21 0 0 1 .254-.204c.036-.019.112-.033.153-.051a4.08 4.08 0 0 1 1.12-.254zm5.546.865c-.147 1.466-1.601 2.215-5.852 1.628l5.852-1.628zm84.731 111.844c.44-1.466 1.319-2.345 3.078-1.905 4.69.733 7.182-.44 7.622-3.518-1.026 2.345-3.371 3.811-8.208 2.931-2.785-.44-2.785 1.026-2.492 2.492zm-2.789-4.251c.147-1.759 1.759-2.052 4.104-1.759 4.104.586 6.742-.293 8.354-1.612-.733 1.612-2.199 2.931-8.061 2.052-1.905-.147-3.371.147-4.397 1.319zm-24.769 1.027c.293-1.173 1.612-1.612 3.664-1.173 3.078 0 4.397-1.612 5.276-3.811-.879 2.199-2.492 3.664-5.863 3.371-2.052-.879-3.224-.293-3.078 1.612zm3.66-6.003c-.147 1.173-.586 2.052-3.224 1.759-2.931.44-5.276 1.319-6.009 3.371.147-2.785 1.612-3.811 4.104-3.371 2.345-.147 3.957-.733 5.13-1.759zm-69.465 10.845c-.586-2.492.733-3.518 2.931-3.811-2.345-.147-4.397.147-2.931 3.811zm-11.291-2.053c.586-1.759 1.612-2.931 3.224-3.518 3.224-1.026 7.035-1.026 10.846-.586-4.104-1.026-7.768-1.173-10.992-.147-1.759.586-2.785 2.052-3.078 4.25zm14.37-2.644c-3.224-.147-6.449-.147-8.501 1.319-2.345.147-2.199 2.052-1.612 4.397 0-1.905.147-3.664 1.905-3.811 1.759-1.319 4.837-1.759 8.208-1.905zm93.799-110.948c4.983-.586 8.794-2.492 12.312-4.837-2.931 3.224-6.742 5.13-12.312 4.837zm15.241-1.908c-2.931-.293 5.13 1.905 5.13 1.905-.586-1.173-2.345-1.466-5.13-1.905zm-6.739 5.423c4.69 1.466 9.234 2.199 13.924.586-4.25 2.345-8.794 2.492-13.924-.586zm3.66-4.686c5.276 2.199 10.553 3.078 15.389.44-4.837 4.69-10.113 3.371-15.389-.44zm-2.634-.291c5.276-2.638 10.26-2.785 14.95.879-4.397-4.544-9.38-5.423-14.95-.879zm-2.198 1.607c5.57 2.785 11.872 3.664 18.761 2.199-6.742 2.345-13.045 1.466-18.761-2.199zm-56.433 75.334c-.733 3.078-2.052 3.957-3.371 4.544 2.638.147 4.25-.879 3.371-4.544zm39.72-1.752c-5.57 4.104-11.579 4.69-17.734 3.957 8.061 2.052 14.217 1.319 17.734-3.957zm3.816-7.621c-2.785 7.328-3.078 14.51 2.199 21.399-6.742-6.009-6.156-13.337-2.199-21.399zm-78.704-74.162c1.026 2.492.586 4.837-.44 7.328 1.905-3.078 2.492-5.716.44-7.328zm-22.581 20.954c3.518 1.466 5.423 1.466 5.863 0-.293 1.759-1.026 3.078-5.863 0zm3.38 6.158c4.104.879 8.501 1.759 6.595 3.224 3.957-1.612.293-2.492-6.595-3.224zm-36.351 42.209c3.371-3.664 7.475-4.69 12.019-4.104-5.57-1.905-9.673-.586-12.019 4.104zm4.106 4.396c2.492-3.811 6.156-5.57 10.113-6.302-4.837-.147-8.647 1.026-10.113 6.302zm4.541 2.498c1.466-3.371 4.25-5.276 8.061-5.863-4.25-1.173-6.742 1.173-8.061 5.863zm37.377-31.664c-3.811 4.69-6.595 9.673-9.087 14.803.879-5.716 2.492-11.286 9.087-14.803zm7.029-8.211c-1.173 2.785-1.612 5.423 0 8.208-2.052-2.785-1.612-5.423 0-8.208zm-3.369 1.908c0 1.466-.733 2.785-2.199 4.25 2.345-1.612 3.078-3.078 2.199-4.25zm-3.961-.581c.44 1.612.733 3.224-.147 4.837 1.905-1.612 1.173-3.224.147-4.837zm-2.633-.446c.44 1.905.147 3.811-.733 5.57 2.052-1.759 2.199-3.664.733-5.57zm-4.541-12.016c-5.276-2.052-7.768-1.759-7.328.586-1.026-3.224.44-4.397 7.328-.586zm-4.697-8.212c2.492.879 3.811 1.905 5.13 3.224-.44-2.638-2.199-3.664-5.13-3.224zm-1.027 16.568c4.544-.586 9.087-1.905 13.485-3.811-4.25 2.492-8.794 3.957-13.485 3.811zm10.555-9.673c7.035 3.224 10.406 7.328 5.57 13.337 7.328-6.595 4.397-10.846-5.57-13.337zm27.703-16.568c1.612-1.026 3.811-1.759 6.449-1.905-3.371-1.173-5.423-.44-6.449 1.905zm-6.449 4.697c1.319 2.785 3.957 3.664 8.061 2.345-4.25 2.785-7.035 2.052-8.061-2.345zm8.067 1.026c-2.492-2.638-5.13-3.957-8.061-1.759 3.224-3.811 5.716-1.466 8.061 1.759zm-9.974-2.644c3.664-3.518 7.915-3.078 12.458 1.319-4.397-4.837-8.501-6.595-12.458-1.319zm2.198-7.475c-.733 2.199-2.199 4.544-5.423 6.742 4.69-2.052 5.863-4.25 5.423-6.742zm-3.225-3.37c-1.026 2.785-2.931 5.57-5.716 8.354 4.983-2.492 7.328-5.276 5.716-8.354zm20.228 18.03c2.638-2.638 5.57-.879 8.647 1.466-3.957-4.983-6.889-5.423-8.647-1.466zm0-6.884c-2.199 2.492-3.518 4.983-3.957 7.328-1.173-2.638.147-4.983 3.957-7.328zm-.736-1.472c-3.518 2.638-5.863 5.13-7.182 7.622.147-3.664 2.638-6.156 7.182-7.622zm0 11.581c3.664.733 7.182.147 10.846-.879-1.026 1.759-10.992 3.078-10.846.879zm1.908 2.053c5.57 2.638 8.501 6.742 8.794 12.604-.147-8.208-3.078-12.458-8.794-12.604zm3.515 6.594c1.759 4.837 4.69 9.673 9.967 14.07-7.035-3.371-9.967-8.208-9.967-14.07zm-13.624 5.277c3.224 4.25 4.837 8.794 5.863 13.631.293-7.328-1.319-12.165-5.863-13.631zm-.591-3.815c2.785.879 4.837 2.931 5.863 6.449 0-4.983-1.905-7.182-5.863-6.449zm2.343-11.872c4.983 4.397 8.647 9.087 10.553 14.07-1.612-8.941-5.423-12.752-10.553-14.07zm-8.647 1.763c6.595 4.397 11.579 8.794 15.097 13.337-2.638-4.983-7.622-9.38-15.097-13.337zm-11.726 15.687c5.13 4.25 8.208 9.967 8.208 17.734 1.759-9.673-1.612-15.097-8.208-17.734zm31.519 36.93c2.492 5.13 2.638 10.113-2.492 14.95 7.475-4.25 6.889-9.38 2.492-14.95zm-36.641 6.74c.586 2.785-1.026 4.25-3.078 5.716 2.785-1.026 4.69-2.492 3.078-5.716zm-16.277-13.78c-.586 2.785-.147 5.716 2.345 8.501-3.957-1.905-4.104-4.983-2.345-8.501zm6.448.737c-1.612 4.104-2.052 8.208-1.759 12.312-1.173-5.13-1.026-9.38 1.759-12.312zm9.238-1.317c-3.371 6.302-5.863 12.458-5.716 18.761-1.319-8.208 1.319-14.07 5.716-18.761zm1.317 12.307c1.905 4.544 3.664 9.087 9.967 9.527.293-3.224-1.319-6.449-3.371-9.673 3.371 2.638 6.009 5.716 5.276 12.019-7.915.293-10.992-4.69-11.872-11.872zm9.093-6.294c.879 3.811 2.052 7.475 5.57 10.846-5.57-3.664-5.716-7.182-5.57-10.846zm-7.921-21.555c-1.026 7.475-4.25 13.045-8.941 17.441 6.009-3.078 9.673-8.208 8.941-17.441zm-4.396-4.396c-.586 3.518-2.345 7.182-5.57 10.846-1.905 2.052-1.905 6.009 0 11.872-.293-4.544-.44-8.794 1.905-11.139 3.664-4.837 4.837-8.648 3.664-11.579zm5.132.156c1.612 5.716 2.785 11.725.44 18.321-1.466 4.25-1.466 8.647 2.052 13.777-4.69-4.25-4.983-8.647-3.371-13.337 2.199-6.156 2.052-12.458.879-18.761zm13.043 15.386c-.733 3.811-2.199 7.915-.293 12.165-.44-4.104 2.638-7.182 5.423-10.113-1.905 4.69-3.957 9.234-5.863 13.777-2.785-4.837-1.905-10.26.733-15.829zm-9.819-15.386c13.191 13.191 1.173 18.174-.147 31.219-2.785-11.579 10.406-15.976.147-31.219zm4.842-13.054c4.983 7.622 6.449 16.416 4.25 26.382 4.397-12.458 1.173-20.08-4.25-26.382zm23.297 1.763c4.25 5.13 6.742 10.406 6.889 15.536 1.173-5.863-1.905-10.992-6.889-15.536zm-2.924 1.172c1.905 7.768 4.983 14.07 10.113 16.562-5.863-1.319-8.794-7.768-10.113-16.562zm-.881 2.934c1.612 6.742 2.199 13.337-.147 20.08 4.983-6.742 3.518-13.337.147-20.08zm-12.172 2.053c2.199 3.518 3.518 7.035 3.957 10.553.879-3.811-.44-7.328-3.957-10.553zm-.29 11.425c3.518 5.57 5.57 11.579 6.302 17.588.879-7.328-1.319-13.337-6.302-17.588zm3.224-12.452c6.595 10.113 9.527 20.226 3.811 30.486 6.742-10.846 6.595-21.106-3.811-30.486z"/></svg>