<svg xmlns="http://www.w3.org/2000/svg" viewBox="0 0 120 60" height="600" width="1200"  xmlns:v="https://vecta.io/nano"><clipPath id="A"><path d="M0,0H60V30H0z"/></clipPath><clipPath id="B"><path d="M0 0v15h60v15zm0 30h30V0h30z"/></clipPath><path fill="#012169" d="M0 0h120v60H0z"/><path clip-path="url(#A)" stroke-width="6" stroke="#fff" d="M0,0 60,30M60,0 0,30"/><path clip-path="url(#B)" stroke-width="4" stroke="#e4002b" d="M0,0 60,30M60,0 0,30"/><path stroke-width="10" stroke="#fff" d="M0,15H60M30,0V30"/><path stroke-width="6" stroke="#e4002b" d="M0,15H60M30,0V30"/><path d="M103.333 30c0 7.363-5.97 13.333-13.333 13.333S76.667 37.364 76.667 30 82.636 16.667 90 16.667s13.333 5.97 13.333 13.334z" fill="#ffd100"/><path d="M91.542 23.692a11.06 11.06 0 0 1-.565.918l-.589.727-.45.661c-.291.529-.291.722-.291.722l-.45.258c-.04.016-.223.135-.476.317-.331.238-.185.12-.543.424-.306.262-.574.742-.741.965a2.16 2.16 0 0 0-.384.992c-.04.397.013.497.013.827 0 .255-.066.47-.212.47-.112 0-.145.013-.225-.278-.046-.17-.049-.13-.079-.529-.007-.086-.04-.351.079-.821.148-.589.319-.814.615-1.269s1.343-1.701 1.488-2.369.251-1.35-.218-2.064c-.386-.587-1.086-.67-1.237-.688-.188-.022-.433-.059-.816.046-.216.06-.361.106-.619.271-.348.223-.516.48-.622.734-.099.238-.155.429-.099.609.038.122.099.146.099.146s-.202.807-.132.966.226.172.298.185c.078.014.012-.484.441-.792 0 0 .242-.024.485-.097.103-.032.34-.176.388-.221.13-.119.336-.363.485-.332a.43.43 0 0 1 .245.126c.177.203.134.445.112.727-.014.18-.167.579-.827 1.277l-1.634 1.825c-.392.507-.533.713-.906 1.403-.123.228-.456 1.164-.331 1.951.191 1.193.765 1.759 1.109 2.064s1.2.67 1.2.67.39.222 1.124.329c1.191.172 1.347.117 1.874.041a18.23 18.23 0 0 0 2.081-.458c.085-.029.136.198.556.443.397.231.443.256.979.245.602-.013.706-.088.972-.172l.344-.099c.062-.013.218-.027.304-.053.13-.041-.016-.096-.086-.106-.265-.04-.349-.139-.377-.179 0 0-.046-.04.026-.059 0 0 .163 0 .582-.132a4.7 4.7 0 0 0 .648-.258c.378-.185.755-.437.906-.549l.761-.595c.398-.332.483-.503.582-.642.066-.093.094-.209.02-.172l-.152.073s-.113.006-.047-.086c.016-.023.084-.074.126-.101 0 0 .278-.252.476-.481.218-.253.35-.437.45-.602 0 0 .047-.099-.079-.033-.139.073-.165.113-.165.113s-.099.013-.033-.198c.075-.239.079-.185.146-.324a4.11 4.11 0 0 1 .331-.536c.119-.161.231-.291.37-.542s.011-.184-.146-.12l-.278.1c-.081.026-.438.188-.529.225l-.509.231-.542.265c-.073.033-.099.073-.298.086-.271.018-.245.006-.424.006-.172 0-.291.023-.41 0s-.199.027-.059-.179l.218-.305.258-.357c-.034.038.291-.403.271-.449s-.152.079-.304.073c-.093 0-.218-.033-.265-.04-.026-.003-.033-.072.073-.172.075-.07.017-.019.179-.146.098-.077.192-.173.258-.238.132-.132.179-.172.324-.357l.298-.397s.094-.129-.066-.073c0 0-.026.02-.271.146a1.11 1.11 0 0 1-.404.092c-.103.002-.074-.055-.006-.106s.038-.051-.027-.053c-.105-.003-.346.055-.284-.04.07-.108.275-.15.225-.178l-.403.04s-.086-.013-.053-.099c.012-.03.171-.167.192-.212l.331-.456s.337-.324.099-.311c-.099.007-.304.192-.47.251s-.675.285-.37-.046c0 0 .066-.059.119-.139l.271-.363s.053-.099-.146-.013c0 0-.326.148-.384.119-.066-.033-.046-.001-.02-.146.013-.073.113-.298.186-.423a2.6 2.6 0 0 1 .271-.384c.062-.068.102-.114-.046-.079 0 0-.301.202-.509.271-.159.053-.238.059-.337.066l-.311.013-.245.02c-.112.009-.007-.099.099-.245 0 0 .038-.075.152-.257l.423-.715s.134-.175-.066-.073c-.014.007-.102.08-.113.092-.139.152-.155.145-.311.278 0 0-.165.106-.285.139 0 0-.251.139-.245.027.009-.159.04-.212.066-.258.037-.065.026-.053.099-.211 0 0 .053-.159.092-.377l.033-.218s.026-.252-.106-.007-.286.41-.423.516c-.077.059-.119.093-.39.192 0 0-.227.111-.384.139-.112.02-.066-.179-.033-.331 0 0 .047-.119.126-.575 0 0 .026-.225-.113-.053 0 0-.07.175-.205.364-.163.23-.265.318-.324.391 0 0-.185.258-.251.397-.012.023-.047-.006-.066.006-.055.036-.066-.575-.066-.575s-.033-.073-.093-.007l-.106.212s-.073.212-.126.252-.112-.642-.099-.827c0 0-.02-.192-.076-.084z"/><path d="M86.425 23.692c.017.03-.105.254-.258.375-.187.148-.404.207-.476.128-.063-.068.126-.35.274-.43.208-.112.436-.116.46-.072z" fill="#ffd100"/><path d="M85.85 23.877c.046.027.164.173.231.232.053.046.059.036.033-.026-.02-.047-.073-.192-.106-.344 0 0-.205.112-.159.139"/></svg>