<svg xmlns="http://www.w3.org/2000/svg" xmlns:xlink="http://www.w3.org/1999/xlink" viewBox="0 0 1200 600" xmlns:v="https://vecta.io/nano"><style><![CDATA[.B{stroke:#000}.C{fill:none}.D{fill:#ffc72c}.E{stroke-width:1.177}.F{fill:#fff}.G{fill-rule:evenodd}.H{fill:#012169}.I{stroke-width:2.66}.J{stroke-width:1.428}.K{stroke-width:1.361}.L{fill:#e4002b}.M{stroke-width:1.176}.N{stroke-width:1.154}]]></style><clipPath id="A"><path d="M0 0v150h700v150H600zm0 300v50h300V0h300z"/></clipPath><path d="M0 0h1200v600H0z" class="H"/><path d="M0 0l600 300m0-300L0 300" stroke="#fff" stroke-width="60"/><path d="M0 0l600 300m0-300L0 300" clip-path="url(#A)" stroke="#e4002b" stroke-width="40"/><path d="M0 150h700M300 0v350" stroke="#fff" stroke-width="100"/><path d="M0 150h700M300 0v350" stroke="#e4002b" stroke-width="60"/><path d="M0 300h600V0h600v600H0z" class="H"/><circle cx="900" cy="300" r="133.3" class="F"/><g fill="#41b6e6"><path d="M941.592 419.118l-41.59-18.342-41.59 18.342 41.59-119.115z"/><path d="M941.592 180.883l-41.59 18.342-41.59-18.342 41.59 119.115z"/><path d="M780.885 341.591l18.342-41.59-18.342-41.59 119.118 41.59z"/><path d="M1019.121 341.591l-18.342-41.59 18.342-41.59-119.118 41.59z"/></g><g transform="matrix(.71575 0 0 .77098 121.64 -284.41)"><use xlink:href="#C" class="F"/><path d="M1093.48 813.817l-6.238-1.311-4.855-1.489c.461.744 1.134 1.489 2.764 2.056-1.311-.035-3.048.461-3.686.744.638.248 2.446.744 3.757.709-1.595.567-2.197 1.311-2.552 2.056l4.43-1.382 6.379-1.382zm-23.533.107a59.52 59.52 0 0 1-6.238-1.134l-4.891-1.347c.425.744 1.134 1.453 2.8 1.985-1.347 0-3.048.567-3.65.851.638.248 2.445.673 3.757.602-1.559.602-2.162 1.382-2.516 2.126l4.395-1.524c1.985-.602 4.076-1.099 6.344-1.559zm-23.356 1.134l-6.344-.709-4.962-.992c.496.709 1.241 1.382 2.942 1.772-1.311.106-2.977.78-3.58 1.099.673.177 2.481.496 3.792.354-1.524.709-2.056 1.524-2.339 2.304l4.288-1.843a53.18 53.18 0 0 1 6.202-1.985zm70.422-.78l-6.273 1.134a44.33 44.33 0 0 0-4.891 1.382c.461-.744 1.134-1.489 2.8-1.985-1.311-.035-3.048-.567-3.65-.851.638-.248 2.445-.673 3.757-.638-1.56-.602-2.162-1.347-2.481-2.126l4.395 1.559 6.344 1.524zm23.285 1.949l-6.309.673-4.997 1.028c.532-.709 1.276-1.382 2.977-1.772-1.347-.106-3.013-.78-3.615-1.099.673-.213 2.481-.532 3.828-.354-1.524-.709-2.091-1.524-2.375-2.304l4.288 1.843 6.202 1.985z"/><path d="M1087.5 818.92c-36.079 0-57.947 2.091-56.139 3.686 12.653 5.281 37.568 6.982 56.139 7.017 18.536-.035 43.451-1.737 56.104-7.017 1.807-1.595-20.06-3.686-56.104-3.686z" fill="#ccc"/><g stroke-width=".616" class="B C"><path d="M1143.5 822.71c.319-.851-1.099-1.099-2.587-1.276-5.777-.744-12.192-1.24-17.898-1.666-8.931-.567-17.933-.744-26.935-.851h-17.26c-9.002.106-18.004.284-26.935.851-5.706.425-12.121.921-17.898 1.666-1.488.177-2.906.425-2.587 1.276"/><use xlink:href="#C"/></g></g><g transform="matrix(.37498 0 0 .40392 781.55 143.68)"><use xlink:href="#D" class="G L"/><use xlink:href="#D" class="B C E"/><g transform="matrix(-1 0 0 1 777.84 85.977)"><use xlink:href="#E" class="D"/><g class="B E"><use xlink:href="#E" class="C"/><g class="F"><use xlink:href="#F"/><use xlink:href="#F" x="-3.4" y="-16.76"/><use xlink:href="#F" x="-2.4" y="-34.5"/><use xlink:href="#F" x="4.4" y="-51.32"/><use xlink:href="#F" x="17.2" y="-64.51"/><use xlink:href="#F" x="33.1" y="-73.15"/><use xlink:href="#F" x="51.3" y="-77.7"/><use xlink:href="#F" x="69.9" y="-76.79"/><use xlink:href="#F" x="120.4" y="-63.6"/><use xlink:href="#F" x="87.7" y="-71.79"/><use xlink:href="#F" x="104" y="-66.79"/></g></g></g><use xlink:href="#G" class="D"/><g class="B"><use xlink:href="#G" class="C E"/><g class="E F"><use xlink:href="#F" x="-146.06" y="85.977"/><use xlink:href="#F" x="-149.46" y="69.217"/><use xlink:href="#F" x="-148.46" y="51.477"/><use xlink:href="#F" x="-141.66" y="34.657"/><use xlink:href="#F" x="-128.86" y="21.467"/><use xlink:href="#F" x="-112.96" y="12.827"/><use xlink:href="#F" x="-94.76" y="8.277"/><use xlink:href="#F" x="-76.16" y="9.187"/><use xlink:href="#F" x="-25.66" y="22.377"/><use xlink:href="#F" x="-58.36" y="14.187"/><use xlink:href="#F" x="-42.06" y="19.187"/></g><g class="M"><path d="M298.863 276.067c1.896-2.401 4.161-4.184 5.997-6.625 1.929-2.564 3.4-5.805 4.157-9.079-3.353.836-6.594 2.308-9.158 4.236-2.441 1.836-4.224 4.101-6.625 5.997V239.85c2.401 1.896 4.184 4.161 6.625 5.997 2.564 1.929 5.805 3.4 9.158 4.236-.756-3.273-2.228-6.514-4.157-9.079-1.836-2.441-4.101-4.224-5.997-6.625h34.064c-1.896 2.401-4.161 4.184-5.997 6.625-1.929 2.564-3.4 5.805-4.157 9.079 3.353-.836 6.594-2.308 9.158-4.236 2.441-1.836 4.224-4.101 6.625-5.997v30.747c-2.401-1.896-4.184-4.161-6.625-5.997-2.564-1.929-5.805-3.4-9.158-4.236.756 3.273 2.228 6.514 4.157 9.079 1.836 2.441 4.101 4.224 5.997 6.625z" class="D"/><path d="M324.363 255.223c.03 3.087-1.574 5.952-4.199 7.504a8.33 8.33 0 0 1-8.494 0c-2.625-1.552-4.229-4.417-4.199-7.504-.03-3.087 1.574-5.952 4.199-7.504a8.33 8.33 0 0 1 8.494 0c2.625 1.552 4.229 4.417 4.199 7.504z" class="F"/></g></g><g transform="matrix(.94311 0 0 .94311 127.1 247.87)"><use xlink:href="#H" class="D"/><use xlink:href="#H" stroke-width="1.248" class="B C"/><path d="M195.84 28.438V45.5h-17.062v8.688h42.812V45.5h-17.094V28.438z" class="D"/><path d="M195.84 28.437v17.062h-17.062v8.688h42.812v-8.687h-17.094V28.437z" stroke-width="1.247" class="B C"/></g><rect x="303.23" y="310.54" width="25.322" height="71.72" ry="6.386" class="D G"/><rect x="303.23" y="310.54" width="25.322" height="71.72" ry="6.386" class="B C E"/><g transform="matrix(1.147 0 0 .90673 44.37 -542.965)"><rect x="221.33" y="941.22" width="7.041" height="79.256" ry="3.8" class="D G"/><path d="M224.85 941.22c1.95 0 3.52 1.695 3.52 3.8v71.656c0 2.105-1.57 3.8-3.52 3.8s-3.52-1.695-3.52-3.8V945.02c0-2.105 1.57-3.8 3.52-3.8z" class="B C N"/></g><g transform="matrix(1.147 0 0 .90673 49.62 -542.965)"><rect x="240.49" y="941.22" width="7.041" height="79.256" ry="3.8" class="D G"/><rect x="240.49" y="941.22" width="7.041" height="79.256" ry="3.8" class="B C N"/></g><g class="B E F"><use xlink:href="#F" x="-0.6" y="26.07"/><use xlink:href="#F" x="-0.6" y="40.18"/><use xlink:href="#F" x="-0.6" y="54.31"/><use xlink:href="#F" x="-0.6" y="68.43"/><use xlink:href="#F" x="-0.6" y="82.56"/></g><use xlink:href="#I" class="D"/><use xlink:href="#I" class="B C E"/><g class="D"><use xlink:href="#J"/><path d="M222.55 441.95c-10.867-.586-21.005-7.374-29.137-21.138-5.273-12.47-11.338-25.099-18.912-38.342 8.729-3.09 18.903-4.736 30.187-5.271-4.589 12.931-9.35 25.528-7.666 35.936 9.481-7.101 12.547-16.767 15.812-26.354l11.021 38.812c-6.689-1.173-3.132-2.555-20.698-5.885 3.52 6.637 11.578 14.832 20.462 15.639zm185.62-6.601c8.884-.807 16.942-9.002 20.462-15.639-17.566 3.33-14.009 4.712-20.698 5.885l11.021-38.812c3.265 9.587 6.331 19.253 15.812 26.354 1.684-10.409-3.077-23.006-7.666-35.936 11.284.535 21.457 2.181 30.187 5.271-7.574 13.242-13.639 25.871-18.912 38.342-8.132 13.764-18.27 20.552-29.137 21.138l-.208.383z"/><path d="M276.89 441.95c-5.477-.3-11.112-1.888-16.048-4.28-4.291-2.079-11.127-8.131-11.127-8.131-3.323 4.312-7.555 7.341-11.583 9.579-5.151 2.862-10.24 3.12-15.586 2.832l-.188 1.873 1.256-8.474c5.974.543 10.31-1.303 14.107-4.596 2.728-2.366 5.215-5.495 5.182-9.02l-.056-6.056c-.012-1.297-1.613-3.132-2.909-3.151-1.236-.017-1.578 1.988-1.908 3.179-.66 2.383.665 5.037 0 7.419-.734 2.626-2.141 4.699-4.451 6.147-1.924 1.206-6.571 1.484-6.571 1.484l1.484-5.723c1.047-4.037-2.872-7.171-3.815-11.234-.607-2.615-.941-5.54 0-8.054 1.019-2.72 3.079-5.368 5.723-6.571.965-.439 2.122-.499 3.179-.424 1.495.106 4.451 1.06 4.451 1.06s-.848-4.091-.636-6.571c.258-3.007 2.805-8.578 4.239-11.234 2.381-4.41 6.168-8.383 6.6-8.81.415.417 4.52 4.238 7.202 8.471 1.615 2.55 3.272 6.234 3.739 9.216.384 2.459.247 7.659.247 7.659s4.366-1.793 5.85-2.003c1.049-.149 2.208-.169 3.201.202 2.721 1.016 4.961 3.514 6.166 6.157 1.114 2.443.984 5.384.56 8.035-.658 4.119-3.078 7.305-1.753 11.26l1.878 5.606s-4.654.046-6.658-1.023c-2.405-1.283-3.954-3.254-4.868-5.822-.829-2.33-.348-5.183-1.788-7.189-.637-.888-1.529-1.87-2.76-1.767-1.293.108-2.2 2.22-2.254 3.516l-.229 5.451c-.07 1.675.693 3.416 1.59 4.771 2.197 3.32 5.467 5.334 9.158 6.83 3.997 1.62 7.601 2.242 11.913 2.293z"/></g><path d="M384.692 421.595l-.126-.211c-.151-2.569.719-6.969.719-6.969.484-2.19 2.362-4.533 4.688-5.375 1.254-.454 2.776-.629 4.125.031.823.402 1.486.714 2.031 1.281s.884 1.312 1.25 2.375c.535 1.554.302 3.174.031 4.563-.447 2.291-.397 4.293.25 5.844.457 1.094 1.377 1.916 2.563 2.625-.22-.783-.379-1.163-.5-2.031-.179-1.287.038-2.617.531-3.781.858-2.028 2.043-3.627 2.844-5.406.764-1.697 1.163-3.62 1.031-5.438-.109-1.499-.552-3.048-1.406-4.125-.926-1.168-2.34-2.137-3.75-2.406-1.255-.24-3.315.187-4.969.719s-2.906 1.125-2.906 1.125l-1.469.687.25-1.594c.859-5.36 1.618-8.081 0-13.094-.665-2.061-1.777-4.334-3.656-6.969-.913-1.28-1.932-2.807-3.094-4.219-3.028 3.447-5.139 6.94-6.344 10.469-1.319 3.863-1.371 9-1.062 13.125l.125 1.656-1.406-.844s-1.599-.98-3.531-1.906-4.287-1.743-5.281-1.656c-1.874.164-3.125 1.06-4.344 2.625-1.035 1.329-1.258 2.48-1.469 4.313-.133 1.158.158 3.334.344 4.75.217 1.659 1.194 3.403 1.469 5.5.091.693.306 1.237.469 1.906s.245 1.455.063 2.375c-.126.636-.314 1.096-.562 1.875.479-.233.809-.349 1.063-.531.927-.666 1.304-1.848 1.906-3.281.324-.771.396-1.464.438-2.281s.082-1.778.5-2.844c.714-1.821 1.554-3.984 3.406-5.312 1.516-1.087 3.538-1.39 5.313-.844 1.051.324 1.803.972 2.344 1.719s.904 1.562 1.281 2.375c.484 1.04.773 2.597 1 3.969a44.76 44.76 0 0 1 .344 2.531l.031.125-.031.156-1.291 4.292-1.646-.371 1.25-4.104a60.17 60.17 0 0 0-.344-2.344c-.219-1.321-.549-2.898-.844-3.531-.387-.832-.735-1.555-1.125-2.094s-.787-.884-1.469-1.094c-1.223-.377-2.811-.147-3.844.594-1.311.94-2.106 2.76-2.812 4.562-.307.783-.333 1.488-.375 2.313s-.086 1.784-.531 2.844c-.552 1.312-1.009 2.928-2.5 4-1.099.79-3.094 1.563-3.094 1.563l-1.75.719.625-1.781s.881-2.613 1.063-3.531c.126-.636.074-1.095-.062-1.656s-.385-1.214-.5-2.094c-.217-1.659-1.194-3.403-1.469-5.5-.179-1.367-.531-3.526-.344-5.156.219-1.901.538-3.551 1.813-5.187 1.396-1.792 3.165-3.043 5.531-3.25 1.87-.164 4.17.846 6.188 1.813 1.298.622 1.692.908 2.344 1.281-.212-3.96-.147-8.526 1.156-12.344 1.382-4.047 3.75-8.036 7.344-11.906l.625-.656.625.656c1.671 1.798 2.812 3.772 3.844 5.219 1.967 2.757 3.185 5.202 3.906 7.438 1.546 4.788.979 8.057.25 12.469.569-.24.768-.372 1.75-.687 1.767-.568 3.922-1.105 5.781-.75 1.901.363 3.613 1.527 4.781 3 1.159 1.462 1.655 3.329 1.781 5.062.156 2.15-.319 4.351-1.187 6.281-.899 1.997-2.088 3.589-2.844 5.375-.381.899-.567 1.943-.437 2.875.194 1.396.938 3.656.938 3.656l.531 1.594-1.625-.531c-2.594-.88-4.292-2.474-5.125-4.469s-.829-4.324-.344-6.812c.255-1.307.39-2.613.031-3.656-.332-.966-.575-1.438-.875-1.75s-.762-.546-1.562-.938c-.739-.362-1.881-.306-2.812.031-1.545.56-3.395 2.628-3.562 4.094-.296 2.589-1.031 5.222-2.28 6.863zm48.749-3.052l.438-.875-.937-.313c-6.979-2.21-13.424-.538-19.5 2.031a134.46 134.46 0 0 0 5.656-20.125c6.625 11.903 12.246 15.797 17.531 18.219l.969.438.219-1.063c1.577-8.127 1.699-18.955-4.969-35.062 7.472.388 14.902 1.284 22.281 4.562l.688-1.562c-8.101-3.6-16.194-4.494-24.187-4.844l-1.375-.062.563 1.25c6.848 15.896 6.849 26.242 5.469 34.219-5.079-2.472-10.219-6.204-16.781-18.719l-1.156-2.187-.437 2.438c-1.425 7.889-3.65 15.789-6.656 23.688l-.75 1.938 1.875-.875c6.137-2.785 12.342-4.598 19.031-2.844l.165.103zm-233.063.25c6.68-1.743 12.871.062 19 2.844l1.875.875-.719-1.937c-3.007-7.898-5.231-15.799-6.656-23.687l-.437-2.437-1.156 2.188c-6.565 12.52-11.732 16.247-16.812 18.719-1.38-7.976-1.348-18.322 5.5-34.219l.531-1.25-1.344.062c-7.994.35-16.086 1.244-24.187 4.844l.688 1.562c7.388-3.283 14.8-4.175 22.281-4.562-6.668 16.108-6.546 26.935-4.969 35.062l.188 1.063 1-.438c5.282-2.42 10.913-6.304 17.531-18.187 1.33 6.704 3.205 13.397 5.656 20.094-6.076-2.569-12.521-4.241-19.5-2.031l-.937.313.438.875-.181.091 2.212.159zm54.883 3.778l-.977-3.652c.017-.154.111-1.031.313-2.25.219-1.321.58-2.898.875-3.531.387-.832.735-1.555 1.125-2.094s.787-.884 1.469-1.094c1.223-.377 2.78-.147 3.813.594 1.311.94 2.137 2.76 2.844 4.562.307.783.333 1.488.375 2.313s.086 1.784.531 2.844c.552 1.312 1.009 2.928 2.5 4 1.099.79 3.094 1.563 3.094 1.563l1.719.719-.594-1.781s-.881-2.613-1.062-3.531c-.126-.636-.074-1.095.063-1.656s.353-1.214.469-2.094c.217-1.659 1.194-3.403 1.469-5.5.179-1.367.563-3.526.375-5.156-.219-1.901-.538-3.551-1.812-5.187-1.396-1.792-3.165-3.043-5.531-3.25-1.87-.164-4.17.846-6.187 1.813-1.298.622-1.692.908-2.344 1.281.212-3.96.147-8.526-1.156-12.344-1.382-4.047-3.75-8.036-7.344-11.906l-.625-.656-.625.656c-1.671 1.798-2.843 3.772-3.875 5.219-1.967 2.757-3.153 5.202-3.875 7.438-1.546 4.788-.979 8.057-.25 12.469-.569-.24-.759-.369-1.75-.687-1.767-.568-3.922-1.105-5.781-.75-1.901.363-3.613 1.527-4.781 3-1.159 1.462-1.655 3.329-1.781 5.062-.156 2.15.319 4.351 1.188 6.281.899 1.997 2.088 3.589 2.844 5.375.381.899.536 1.943.406 2.875-.194 1.396-.906 3.656-.906 3.656l-.531 1.594 1.625-.531c2.594-.88 4.292-2.474 5.125-4.469s.829-4.324.344-6.812c-.255-1.307-.39-2.613-.031-3.656.332-.966.575-1.438.875-1.75s.731-.546 1.531-.938c.739-.361 1.912-.306 2.844.031 1.545.56 3.231 2.65 3.563 4.094v.031c.008.042.806 4.509.688 6.531l2.006.355c-.167-2.83-1.037-7.229-1.037-7.229-.484-2.19-2.33-4.533-4.656-5.375-1.254-.454-2.807-.628-4.156.031-.823.402-1.455.714-2 1.281s-.915 1.312-1.281 2.375c-.535 1.554-.302 3.174-.031 4.563.447 2.291.397 4.293-.25 5.844-.457 1.094-1.346 1.916-2.531 2.625.22-.783.379-1.163.5-2.031.179-1.287-.038-2.617-.531-3.781-.858-2.028-2.043-3.627-2.844-5.406-.764-1.697-1.195-3.62-1.062-5.438.109-1.499.552-3.048 1.406-4.125.926-1.168 2.371-2.137 3.781-2.406 1.255-.24 3.284.187 4.938.719s2.938 1.125 2.938 1.125l1.469.687-.281-1.594c-.859-5.36-1.587-8.081.031-13.094.665-2.061 1.745-4.334 3.625-6.969.913-1.28 1.962-2.807 3.125-4.219 3.027 3.446 5.139 6.94 6.344 10.469 1.319 3.863 1.34 9 1.031 13.125l-.094 1.656 1.406-.844s1.568-.98 3.5-1.906 4.319-1.743 5.313-1.656c1.874.164 3.125 1.06 4.344 2.625 1.035 1.329 1.258 2.48 1.469 4.313.133 1.158-.19 3.334-.375 4.75-.217 1.659-1.163 3.403-1.437 5.5-.091.693-.306 1.237-.469 1.906s-.276 1.455-.094 2.375c.126.636.314 1.096.563 1.875-.479-.233-.809-.349-1.062-.531-.927-.666-1.304-1.848-1.906-3.281-.324-.771-.365-1.464-.406-2.281s-.082-1.778-.5-2.844c-.714-1.821-1.554-3.984-3.406-5.312-1.516-1.087-3.538-1.39-5.312-.844-1.051.324-1.834.972-2.375 1.719s-.872 1.562-1.25 2.375c-.484 1.04-.773 2.597-1 3.969s-.375 2.531-.375 2.531v.125l.031.156 1.008 3.746.497.054 1.159-.428zm64.679-13.84l.031-1.062 1.031.25c4.755 1.192 8.39 2.803 11.406 4.594 3.827 2.272 6.653 4.822 9.625 7.281l.5-28.219c-2.533 2.796-4.91 5.792-8.406 8.188-2.855 1.957-8.21 4.528-13.219 5.094l-1.187.125.25-1.156c.705-3.18.685-5.389 2.281-9.156 1.515-3.574 4.708-8.757 11.063-17.438-5.495-.607-10.283-1.281-17.437-1.281s-11.913.674-17.406 1.281c6.354 8.681 9.548 13.864 11.063 17.438 1.597 3.767 1.576 5.976 2.281 9.156l.25 1.156-1.187-.125c-5.009-.565-10.363-3.137-13.219-5.094-3.483-2.387-5.885-5.369-8.406-8.156l.5 28.156c2.96-2.451 5.813-4.987 9.625-7.25 3.016-1.79 6.62-3.401 11.375-4.594l1.063-.25v1.062l-1.713 1.197c-4.015 1.131-7.225 2.495-9.85 4.053-4.203 2.495-7.24 5.408-10.812 8.25l-1.344 1.063-.031-1.719-.531-32.187-.062-2.125 1.5 1.5c3.298 3.326 5.771 6.952 9.625 9.594 2.377 1.629 7.037 3.807 11.313 4.563-.476-2.563-.686-4.568-1.969-7.594-1.502-3.544-4.595-8.74-11.656-18.281l-.875-1.188 1.469-.156c6.085-.631 11.105-1.469 19-1.469v.001c7.895 0 12.915.838 19 1.469l1.5.156-.875 1.188c-7.061 9.541-10.185 14.737-11.687 18.281-1.287 3.037-1.457 5.048-1.937 7.625 4.278-.755 8.903-2.964 11.281-4.594 3.855-2.641 6.358-6.268 9.656-9.594l1.469-1.5-.031 2.125-.562 32.188v1.719l-1.375-1.063c-3.572-2.842-6.578-5.755-10.781-8.25-2.624-1.558-5.834-2.921-9.844-4.031z"/><g class="B"><use xlink:href="#J" class="C E"/><g class="F M"><use xlink:href="#K"/><use xlink:href="#K" x="-121.5" y="10.74"/><path d="M429.659 416.881c-.027 2.806 1.431 5.411 3.817 6.822a7.57 7.57 0 0 0 7.722 0c2.387-1.411 3.844-4.016 3.817-6.822.027-2.806-1.431-5.411-3.817-6.822a7.57 7.57 0 0 0-7.722 0c-2.387 1.411-3.844 4.016-3.817 6.822z"/></g></g><g transform="matrix(.99853 -.054185 .054185 .99853 528.8 -690.207)"><use xlink:href="#L" class="D"/><use xlink:href="#L" class="B C E"/></g><g transform="matrix(-.99853 -.054185 -.054185 .99853 102.99 -690.207)"><use xlink:href="#L" fill="#f6e078"/><use xlink:href="#L" class="B D E"/></g><path d="M209.32 483.2l33.297-2.083c21.242-1.199 44-1.829 55.609-1.829h35.387c11.245 0 34.538.63 55.609 1.829l33.055 2.204 7.388-33.005s-75.7-6.831-113.75-6.831-113.75 6.831-113.75 6.831z" class="D G"/><path d="M315.43 443.85c38.012-.019 76.02 2.041 113.86 6.234l-6.928 33.312c-37.64-3.379-68.451-4.283-106.51-4.581m.505-34.966c-38.012-.019-76.02 2.041-113.86 6.234l6.928 33.312c37.64-3.379 68.451-4.283 106.51-4.581" class="B C E"/><use xlink:href="#M" class="D"/><use xlink:href="#M" stroke-width="1.197" class="B C"/><path d="M247.438 479.034l-.029.024h-.029c-12.568.973-27.115 2.033-39.808 3.893-1.795 2.307-1.944 4.411 1.322 6.094 12.187-1.786 26.554-2.872 39.132-3.845 17.058-1.063 34.258-1.728 51.413-1.91h32.904c10.262 0 31.934.673 51.413 1.935 19.39 1.255 39.191 3.821 39.191 3.821 3.379-1.856 3.012-3.932 1.175-6.094 0 0-19.985-2.636-39.778-3.918-19.705-1.276-41.35-1.935-51.999-1.935H299.44c-17.358.056-34.691.936-52 1.935z" class="D"/><path d="M247.438 479.034l-.029.024h-.029c-12.568.973-27.115 2.033-39.808 3.893-1.795 2.307-1.944 4.411 1.322 6.094 12.187-1.786 26.554-2.872 39.132-3.845 17.058-1.063 34.258-1.376 51.413-1.558h32.904c10.262 0 31.934.321 51.413 1.582 19.39 1.255 39.191 3.821 39.191 3.821 3.379-1.856 3.012-3.932 1.175-6.094 0 0-19.985-2.636-39.778-3.918-19.705-1.276-41.35-1.582-51.999-1.582H299.44a956.24 956.24 0 0 0-52 1.583z" stroke-width="1.187" class="B C"/><g transform="matrix(.50554 0 0 .38692 -1142.49 132.691)" class="I"><rect x="2840.1" y="823.57" width="89.493" height="59.169" ry="3.006" class="B C"/><g class="G"><g stroke="#a0892c"><rect x="2849.7" y="831.33" width="70.263" height="43.637" ry="5.177" fill="#00247d"/><path d="M2918.5 873.46a5.16 5.16 0 0 1-3.664 1.513h-59.908a5.16 5.16 0 0 1-5.177-5.177v-33.282a5.16 5.16 0 0 1 1.513-3.664c.936-.936 68.172 39.675 67.237 40.611z" fill="#2b96f6"/></g><g class="B H"><path d="M2918.5 873.46a5.16 5.16 0 0 1-3.664 1.513h-59.908a5.16 5.16 0 0 1-5.177-5.177v-33.282a5.16 5.16 0 0 1 1.513-3.664c.475-.475 18.04 9.759 35.096 20.073 16.539 10.001 32.601 20.077 32.14 20.538z"/><path d="M2918.5 832.84a5.16 5.16 0 0 1 1.513 3.664v33.282a5.16 5.16 0 0 1-5.177 5.177h-59.908a5.16 5.16 0 0 1-3.664-1.513c-.936-.936 66.301-41.547 67.237-40.611z"/><path d="M2918.5 873.46a5.16 5.16 0 0 1-3.664 1.513h-59.908a5.16 5.16 0 0 1-3.664-1.513c-.475-.475 16.6-11.163 33.661-21.457 0 0 34.512 20.521 33.576 21.457z"/></g></g><g class="B"><rect x="2849.7" y="831.33" width="70.263" height="43.637" ry="5.177" class="C"/><path d="M2865.2 841.29h39.367v22.304H2865.2z" class="G H"/></g></g><g transform="matrix(.8657 -.085066 .13597 .77024 -234.431 236.83)"><g class="G"><rect x="494.63" y="340.21" width="35.829" height="22.674" ry="10.771" class="B D J"/><rect x="497.57" y="343.28" width="29.954" height="16.542" ry="8.271" fill="#4a7729"/></g><rect x="497.57" y="343.28" width="29.954" height="16.542" ry="8.271" class="B C J"/></g><g transform="matrix(-.81814 .14282 .15467 .88602 670.8 114.48)"><path d="m626.17 310.88-23.701-12.771 23.701-12.082 2.8814 13.147z" class="B D K"/><g class="L"><path d="M626.17 307.47l-17.183-9.259 17.183-8.759 5.657 8.579z"/><path d="M626.17 307.47l-17.183-9.259 22.66-.18z"/></g><g class="B C K"><path d="M608.93 298.14l22.953-.025"/><path d="M626.17 307.47l-17.183-9.259 17.183-8.759 5.837 8.399z"/></g></g><g class="B F"><use xlink:href="#N" class="E"/><use xlink:href="#N" x="0.78" y="12.188" class="M"/><g class="E"><use xlink:href="#N" x="-51.43" y="2.813"/><use xlink:href="#N" x="-50.65" y="15.001"/></g></g><g transform="matrix(-1 0 0 1 813.09 103.2)"><g transform="matrix(.8657 -.085066 .13597 .77024 -53.131 133.63)"><g class="G"><rect x="494.63" y="340.21" width="35.829" height="22.674" ry="10.771" class="B D J"/><rect x="497.57" y="343.28" width="29.954" height="16.542" ry="8.271" fill="#4a7729"/></g><rect x="497.57" y="343.28" width="29.954" height="16.542" ry="8.271" class="B C J"/></g><g transform="matrix(-.81814 .14282 .15467 .88602 852.1 11.28)"><path d="m626.17 310.88-23.701-12.771 23.701-12.082 2.8814 13.147z" class="B D K"/><g class="L"><path d="M626.17 307.47l-17.183-9.259 17.183-8.759 5.657 8.579z"/><path d="M626.17 307.47l-17.183-9.259 22.66-.18z"/></g><g class="B C K"><path d="M608.93 298.14l22.953-.025"/><path d="M626.17 307.47l-17.183-9.259 17.183-8.759 5.837 8.399z"/></g></g><g class="B E F"><use xlink:href="#N" x="181.3" y="-103.2"/><use xlink:href="#N" x="182.08" y="-91.012"/><use xlink:href="#N" x="129.87" y="-100.387"/><use xlink:href="#N" x="130.65" y="-88.199"/></g></g></g><defs ><path id="C" d="M1078.8 808.64c-9.002.106-18.004.284-26.935.851-6.592.496-14.106 1.063-20.52 1.985l-1.63.284c-4.04.78-4.607 5.6-2.481 8.222 4.324 5.423 29.948 9.64 60.215 9.64 30.231 0 55.856-4.217 60.179-9.64 2.127-2.623 1.559-7.443-2.481-8.222l-1.63-.284c-6.379-.921-13.928-1.489-20.52-1.985-8.931-.567-17.933-.744-26.935-.851h-8.612z"/><path id="D" d="M408.737 468.5l8.32-24.301 3.36-10.06 8.328-5.176 8.435-19.172 3.973-5.014.613-17.664s-5.827-12.53-14.846-17.03c-12.901-6.437-30.411-5.552-30.411-5.552s-4.045-10.698-11.464-14.861-15.657-5.166-24.303-5.166-24.164 7.732-32.555 10.004c-4.363 1.182-14.215 5.167-14.215 5.167s-9.852-3.985-14.215-5.167c-8.391-2.273-23.909-10.004-32.555-10.004s-16.615.852-24.303 5.166c-7.15 4.012-16.965 14.861-16.965 14.861s-11.238-1.525-19.134 3.225c-9.848 5.926-16.788 18.389-16.788 18.389l.68 19.301 1.551 7.377 6.364 7.315 8.296 14.774 5.944 14.571 6.361 19.017z"/><path id="E" d="M358.41 213.62c-9.019 2.001-18.587 5.975-26.125 13.438-6.987 6.917-11.634 15.083-14.312 25-2.507 9.282-2.583 14.802-1.469 24.045 1.434 11.893 8.75 23.83 8.75 23.83l12.611-2.25s-7.599-16.016-8.454-23.111c-1.028-8.523-.996-11.257 1.125-19.108 2.197-8.133 5.386-13.722 10.875-19.156 5.177-5.125 12.469-8.3 19.938-10.031 6.661-1.544 14.188-2.204 20.031-1 11.099 2.288 18.309 5.911 30.375 9.719 8.703 2.746 15.356 3.688 24.156 4.188 5.383.306 11.605-1.037 17.438-2.281s10.719-2.531 10.719-2.531l-3.281-12.594s-4.661 1.234-10.156 2.406-12.358 2.123-13.969 2.031c-8.297-.471-13.168-1.163-20.969-3.625-11.169-3.524-19.074-7.432-31.688-10.062-8.499-1.773-17.217-.765-25.594 1.094z"/><path id="F" d="M323.483 285.997c.025 2.551-1.301 4.919-3.47 6.201s-4.85 1.283-7.02 0-3.495-3.651-3.47-6.201c-.025-2.551 1.301-4.919 3.47-6.201s4.85-1.283 7.02 0 3.495 3.651 3.47 6.201z"/><path id="G" d="M212.35 299.597c-9.019 2.001-18.587 5.975-26.125 13.438-6.987 6.918-11.634 15.083-14.312 25-2.507 9.282-2.583 14.802-1.469 24.045 1.434 11.893 8.75 23.83 8.75 23.83l12.611-2.25s-7.599-16.016-8.454-23.111c-1.028-8.523-.996-11.257 1.125-19.108 2.197-8.133 5.386-13.722 10.875-19.156 5.177-5.125 12.469-8.3 19.938-10.031 6.661-1.544 14.188-2.205 20.031-1 11.099 2.288 18.309 5.911 30.375 9.719 8.703 2.746 15.356 3.688 24.156 4.188 5.383.306 11.605-1.037 17.438-2.281s10.719-2.531 10.719-2.531l-3.281-12.594s-4.661 1.234-10.156 2.406-12.358 2.123-13.969 2.031c-8.297-.471-13.168-1.163-20.969-3.625-11.169-3.524-19.074-7.432-31.688-10.062-8.499-1.773-17.217-.765-25.594 1.094z"/><path id="H" d="M220.418 50.317c.071 7.309-3.787 14.093-10.105 17.768a20.33 20.33 0 0 1-20.441 0c-6.318-3.675-10.176-10.459-10.105-17.768-.071-7.309 3.787-14.093 10.105-17.768a20.33 20.33 0 0 1 20.441 0c6.318 3.675 10.176 10.459 10.105 17.768z"/><path id="I" d="M441.25 413.35c-6.72 15.023-12.101 29.69-17.375 44.782h-216.62c-5.098-14.589-10.297-30.282-16.708-44.782 0 0 13.482 18.865 23.578 23.427 5.608 2.534 12.623 3.289 18.421 1.228 7.642-2.717 17.807-16.579 17.807-16.579s9.141 10.698 15.351 13.509c5.829 2.638 12.644 2.745 19.035 2.456 5.655-.256 11.92-.469 16.579-3.684 7.055-4.869 14.123-21.491 14.123-21.491s6.838 13.078 12.281 17.807c4.491 3.902 10.131 6.816 15.965 7.982s12.21.79 17.807-1.228c7.588-2.736 19.649-14.123 19.649-14.123s8.302 10.296 14.123 12.895c5.635 2.515 12.414 3.256 18.421 1.842 6.357-1.496 11.698-6.1 16.579-10.439 4.357-3.872 10.988-13.602 10.988-13.602z"/><path id="J" d="M315.89 421.95s-4.939 7.603-7.977 10.201c-4.218 3.608-6.992 5.781-12.411 7.489-5.409 1.705-12.953 2.664-18.616 2.354-5.477-.3-11.112-1.888-16.048-4.28-4.291-2.079-11.127-8.131-11.127-8.131-3.323 4.312-7.555 7.341-11.583 9.579-5.151 2.862-10.24 3.12-15.586 2.832-10.867-.586-21.005-7.374-29.137-21.138-5.273-12.47-11.338-25.099-18.912-38.342 8.729-3.09 18.903-4.736 30.187-5.271-4.589 12.931-9.35 25.528-7.666 35.936 9.481-7.101 12.547-16.767 15.812-26.354l11.021 38.812c-6.689-1.173-3.132-2.555-20.698-5.885 3.52 6.637 11.578 14.832 20.462 15.639 5.974.543 10.31-1.303 14.107-4.596 2.728-2.366 5.215-5.495 5.182-9.02l-.056-6.056c-.012-1.297-1.613-3.132-2.909-3.151-1.236-.017-1.578 1.988-1.908 3.179-.66 2.383.665 5.037 0 7.419-.734 2.626-2.141 4.699-4.451 6.147-1.924 1.206-6.571 1.484-6.571 1.484l1.484-5.723c1.047-4.037-2.872-7.171-3.815-11.234-.607-2.615-.941-5.54 0-8.054 1.019-2.72 3.079-5.368 5.723-6.571.965-.439 2.122-.499 3.179-.424 1.495.106 4.451 1.06 4.451 1.06s-.848-4.091-.636-6.571c.258-3.007 2.805-8.578 4.239-11.234 2.381-4.41 6.168-8.383 6.6-8.81.415.417 4.52 4.238 7.202 8.471 1.615 2.55 3.272 6.234 3.739 9.216.384 2.459.247 7.659.247 7.659s4.366-1.793 5.85-2.003c1.049-.149 2.208-.169 3.201.202 2.721 1.016 4.961 3.514 6.166 6.157 1.114 2.443.984 5.384.56 8.035-.658 4.119-3.078 7.305-1.753 11.26l1.878 5.606s-4.654.046-6.658-1.023c-2.405-1.283-3.954-3.254-4.868-5.822-.829-2.33-.348-5.183-1.788-7.189-.637-.888-1.529-1.87-2.76-1.767-1.293.108-2.2 2.22-2.254 3.516l-.229 5.451c-.07 1.675.693 3.416 1.59 4.771 2.197 3.32 5.467 5.334 9.158 6.83 3.997 1.62 7.601 2.242 11.913 2.293 3.597.042 9.85-.547 13.258-1.699 4.199-1.419 6.669-3.221 9.918-6.236 1.831-1.7 3.055-4.168 3.86-6.533.928-2.724.594-7.424.594-7.424-4.178 1.584-7.811 3.713-11.086 6.201-3.701 2.812-6.943 6.081-9.998 9.538l-.297-46.919c4.353 4.802 7.517 9.102 11.87 12.718 3.665 3.045 5.549 4.207 9.214 5.396-1.047-3.774-1.401-6.064-4.103-9.838-3.747-5.233-7.396-10.852-11.932-16.086 8.353-1.391 16.702-1.766 25.167-1.766s16.813.375 25.167 1.766c-4.537 5.233-8.186 10.852-11.932 16.086-2.702 3.774-3.056 6.064-4.103 9.838 3.665-1.189 5.549-2.351 9.214-5.396 4.353-3.616 7.517-7.917 11.87-12.718l-.297 46.919c-3.055-3.457-6.298-6.726-9.998-9.538-3.274-2.488-6.907-4.617-11.086-6.201 0 0-.334 4.7.594 7.424.806 2.365 2.029 4.833 3.86 6.533 3.248 3.015 5.718 4.817 9.918 6.236 3.408 1.152 9.661 1.741 13.258 1.699 4.312-.05 7.916-.673 11.913-2.293 3.69-1.495 6.96-3.509 9.158-6.83.897-1.355 1.66-3.096 1.59-4.771l-.229-5.451c-.054-1.296-.962-3.408-2.254-3.516-1.232-.103-2.123.88-2.76 1.767-1.44 2.006-.958 4.859-1.788 7.189-.914 2.568-2.463 4.539-4.868 5.822-2.004 1.069-6.658 1.023-6.658 1.023l1.878-5.606c1.325-3.955-1.095-7.141-1.753-11.26-.424-2.651-.554-5.592.56-8.035 1.205-2.643 3.445-5.14 6.166-6.157.993-.371 2.152-.35 3.201-.202 1.484.21 5.85 2.003 5.85 2.003s-.138-5.2.247-7.659c.466-2.982 2.123-6.666 3.739-9.216 2.683-4.234 6.787-8.054 7.202-8.471.432.427 4.219 4.4 6.6 8.81 1.434 2.656 3.982 8.226 4.239 11.234.212 2.48-.636 6.571-.636 6.571s2.956-.954 4.451-1.06c1.057-.075 2.215-.015 3.179.424 2.644 1.203 4.704 3.851 5.723 6.571.941 2.514.607 5.439 0 8.054-.943 4.063-4.862 7.196-3.815 11.234l1.484 5.723s-4.646-.278-6.571-1.484c-2.31-1.447-3.718-3.521-4.451-6.147-.665-2.382.66-5.035 0-7.419-.33-1.191-.672-3.197-1.908-3.179-1.297.018-2.897 1.854-2.909 3.151l-.056 6.056c-.033 3.525 2.455 6.654 5.182 9.02 3.797 3.293 8.133 5.139 14.107 4.596 8.884-.807 16.942-9.002 20.462-15.639-17.566 3.33-14.009 4.712-20.698 5.885l11.021-38.812c3.265 9.587 6.331 19.253 15.812 26.354 1.684-10.409-3.077-23.006-7.666-35.936 11.284.535 21.457 2.181 30.187 5.271-7.574 13.242-13.639 25.871-18.912 38.342-8.132 13.764-18.27 20.552-29.137 21.138-5.346.288-10.435.03-15.586-2.832-4.028-2.238-8.259-5.267-11.583-9.579 0 0-6.836 6.052-11.127 8.131-4.936 2.391-10.571 3.979-16.048 4.28-5.663.31-13.207-.649-18.616-2.354-5.418-1.708-8.192-3.881-12.411-7.489-3.037-2.598-7.977-10.201-7.977-10.201z"/><path id="K" d="M323.621 406.141c.027 2.806-1.431 5.411-3.817 6.822a7.57 7.57 0 0 1-7.722 0c-2.387-1.411-3.844-4.016-3.817-6.822-.027-2.806 1.431-5.411 3.817-6.822a7.57 7.57 0 0 1 7.722 0c2.387 1.411 3.844 4.016 3.817 6.822z"/><path id="L" d="M-346.46 1090.7h16.902l2.199 3.806-2.199 3.806h-16.902l-2.707-3.806z"/><path id="M" d="M242.248 444.644l-.032.024h-.032c-13.517.973-29.162 2.033-42.814 3.893-1.93 2.307-2.09 4.411 1.422 6.094 13.107-1.786 28.56-2.872 42.087-3.845 18.346-1.063 36.844-1.728 55.295-1.91h35.389c11.037 0 34.345.673 55.295 1.935 20.854 1.255 42.151 3.821 42.151 3.821 3.634-1.856 3.239-3.932 1.264-6.094 0 0-21.494-2.636-42.782-3.918-21.193-1.276-44.472-1.935-55.926-1.935h-35.389c-18.669.056-37.311.936-55.927 1.935z"/><path id="N" d="M286.183 456.866c.013 1.397-.712 2.694-1.901 3.397a3.77 3.77 0 0 1-3.845 0c-1.188-.703-1.914-1.999-1.901-3.397-.013-1.397.712-2.694 1.901-3.397a3.77 3.77 0 0 1 3.845 0c1.188.703 1.914 1.999 1.901 3.397z"/></defs></svg>