<svg xmlns="http://www.w3.org/2000/svg" viewBox="0 0 1200 600"  xmlns:v="https://vecta.io/nano"><clipPath id="A"><path d="M0 0v150h700v150H600zm0 300v50h300V0h300z"/></clipPath><path fill="#012169" d="M0 0h1200v600H0z"/><g fill="none"><path d="M0 0l600 300m0-300L0 300" stroke="#fff" stroke-width="60"/><path d="M0,0 600,300M600,0 0,300" clip-path="url(#A)" stroke="#e4002b" stroke-width="40"/><path d="M0,150H700M300,0V350" stroke="#fff" stroke-width="100"/><path d="M0,150H700M300,0V350" stroke="#e4002b" stroke-width="60"/></g><path d="M0 300h600V0h600v600H0z" fill="#012169"/><circle cx="900" cy="300" r="133.3" fill="#ffa400"/><path d="M842.62 370.78l-.689 5.759 112.08.054 1.151-5.813z" fill="#40721b"/><path d="M933.02 370.6l-2.511 6.488 10.569.419 1.151-6.906zm-75.27-.46l-2.511 6.488 10.569.419 1.151-6.906z" fill="#012169"/><path d="M863.53 229.26l-1.48 16.579-2.961 14.507 7.697 18.948 1.48 7.993c4.383 3.81 5.836 7.036 7.994 12.434l7.994.888 7.105-1.48c3.746-7.546 3.55-13.851 2.961-21.908 8.308 1.971 14.083 5.493 18.652 12.138l2.368 10.658c5.817 1.222 8.361.354 13.027-2.664l6.217-8.586 2.961-11.25 5.329-19.836-1.776-10.362 1.184-14.507 26.645 26.349c4.05 50.586-6.943 51.233-50.33 70.165l-4.737 22.5 20.132 17.171-17.171 2.072 12.434 12.73-6.513 12.73c-20.243 5.326-31.743 3.751-50.922-3.257-2-3.873-2.667-7.076-2.368-11.25l11.546-11.25c-4.704-1.195-9.42-.757-14.211-.592 2.496-5.297 7.286-8.6 11.546-12.434l7.697-2.368-1.776-13.323-5.625-19.54-32.566-19.836c-13.047-45.393-23.979-53.65 17.467-73.422z" fill="#fff"/><path d="M858.24 191.18c-2.789 1.49-4.656 4.923-5.271 8.122 1.548 7.504-.236 15.167-.308 22.827-1.938-3.519-2.328-7.655-3.404-11.567-1.938-4.14-2.707-10.398-7.732-11.567-3.333 4.927-.246 11.023-.328 16.571.626 3.116 4.03 5.864 1.866 9.373l-7.117-10.008c-2.4-2.66-5.271-6.646-8.675-6.563-.697 6.562 3.261 11.179 5.271 16.571.174.59.431 1.154.738 1.682h.123c1.116 1.882 2.722 3.617 2.543 5.619-2.677-1.894-5.24-3.92-7.814-5.825h-.308c-4.32-3.124-8.706-5.828-13.864-6.788-.287 2.639.605 4.892 2.03 6.994h.164c2.345 3.337 5.951 6.275 8.019 9.701l-.615.615c-4.184-1.874-8.214-4.058-12.08-6.563-2.554-.549-5.045-3.125-7.752-1.251 0 4.999 3.168 8.901 6.501 12.182-4.184.549-8.829-2.422-13.003 0 .851 3.747 5.343 6.026 6.501 9.701-3.948 2.112-9.198.763-13.31 2.482 1.015 2.971 3.948 5.081 5.578 7.814l-.943.943c-3.251 0-5.712 2.118-8.347 3.753.39 3.757 5.025 5.781 6.809 9.373-3.025 1.956-6.358 4.616-8.368 7.814 1.713 2.401 4.297 3.654 6.153 5.496h.164c.427.467.814.955 1.128 1.497-2.246 3.043-6.676 4.925-6.83 9.065 2.174 2.495 5.732 2.657 8.368 4.697-1.323 2.422-3.876 4.598-3.097 7.486 3.476 1.884 7.906 1.643 11.772 2.502-1.005 2.495-1.795 5.081-2.174 7.814 2.317 3.043 7.373 1.726 10.542 2.502-.225 2.505-1.938 5.223-2.174 8.122 3.015 1.946 6.809.245 10.213.328 2.02-.476 2.246 1.782 2.482 3.117.615 4.368 4.963.769 7.752 1.866l3.097 5.312c1.702.155 3.24-.147 4.635-.923 2.482-1.563 3.651 1.33 4.656 2.81 1.784 2.815 4.337 0 6.501 0 1.62.787 2.246 2.501 3.405 3.753 2.318 1.325 3.63-1.557 5.25-2.81 3.097-1.646 4.276 3.112 6.83 3.733 2.943-2.422 6.193-3.191 9.906-1.866 4.102-3.519 3.64-8.987 4.02-14.069.318-.859.625-2.277 1.866-2.195 1.475 6.172 5.04 12.944 2.523 19.114h-.061c-.379.828-.882 1.725-1.538 2.584-7.425 5.393-12.705 17.405-24.16 13.741-4.645 4.14-13.156-.702-16.715 5.312-.697 2.029-.236 4.385 1.231 5.948 2.789 1.718 7.445 1.233 9.926.923 1.702 1.014 3.312 1.972 5.558 1.579 1.938-3.043 4.03-.075 6.194.308 2.246.083 4.102-2.742 6.194-1.251-2.092 3.437-4.481 6.639-5.25 10.624-.236 2.815 4.327 2.031 3.097 5.312.687 2.422 3.251 1.568 4.635 2.81.164 4.068 4.635 2.984 7.117 4.081.769 7.028 8.439-.953 9.906 5.62 1.631 0 2.871-1.093 4.348-1.559 1.856.228 3.24 2.345 4.327 3.753 3.097 2.495 4.255-1.658 6.501-3.138l5.578 2.195 3.712-4.368c4.338 3.198 5.876-3.212 9.906-1.887 2.789.321 2.471-2.888 3.712-4.368 4.799.704 4.102-6.03 8.675-5.948.308-5.465-4.573-8.662-5.886-13.433 1.856-1.087 3.343.544 4.656 1.559 2.861.942 4.337-1.491 6.501-2.195 3.948 6.169 7.896-2.334 13.003-.615 2.328-.787 4.481-3.215 4.02-5.948-.544-1.252-1.313-2.879-2.789-3.117-7.661.942-12.838-4.217-20.735-2.81l-13.003-12.511c-1.354-.931-2.338-2.019-3.015-3.199h-.103c-2.488-4.591-.637-10.568.636-15.361.154-.932 1.159-2.487 2.482-1.866 3.015 4.223 1.312 10.938 6.194 14.685 1.466.859 3.097 1.183 4.327-.308 2.02-1.873 4.184.549 5.271 2.195 1.62.228 2.625-1.097 3.712-2.195 2.328-1.956 4.338.858 6.501 1.251 1.159-.942 2.092-2.511 3.097-3.753 1.856-1.097 3.086 1.021 4.635 1.559 2.861.87 2.953-3.514 4.963-5.004 2.246-.072 3.876 1.406 6.194 1.251l2.482-4.368c2.471-2.888 5.578.241 8.675-.308l4.02-5.948 6.501-.308c1.702-1.873 1.63-4.528 1.559-7.178 3.251-2.111 7.803-1.014 11.444-2.195.236-2.805-1.384-5.789-2.461-8.45 3.097-1.563 7.198-.769 10.521-1.866 1.087-3.913-2.943-6.882-3.712-10.008l9.598-4.676c-.154-3.519-4.563-4.691-5.886-7.506.736-.543 1.489-1.017 2.256-1.477h.328c2.123-1.232 4.317-2.243 6.399-3.63l.308-1.579c-2.943-3.198-6.737-5.46-10.521-7.178l-.308-.943 6.809-6.255v-1.559c-2.718-2.733-6.819-2.27-9.926-4.061 1.548-3.281 6.522-4.375 7.137-8.122-1.938-2.267-4.809-2.109-7.445-2.502-1.774 0-3.784 1.252-5.25 0 1.938-3.592 6.194-5.387 7.117-9.373-6.03-2.422-12.162 1.643-17.658 2.502 1.63-2.577 3.64-4.62 6.194-6.255 2.4-2.267 7.199-4.53 5.886-8.122-5.958 0-10.921 2.344-15.792 5.004-3.558 1.252-6.501 4.998-9.906 5.619 2.471-3.198 6.491-5.166 9.27-8.757 1.811-1.989 2.158-4.59 3.302-6.871h.123c.513-.963 1.179-1.849 2.174-2.605.236-1.801 2.246-3.531.615-5.332-5.128 1.294-9.903 4.198-14.11 7.773h-.226c-2.584 2.246-4.932 4.755-7.035 7.342l-.636-.615c1.443-2.109 2.358-4.395 3.61-6.563h.103c.82-1.387 1.774-2.707 3.117-3.876 1.856-4.068 5.579-8.983 2.789-13.433-7.935 2.394-12.126 10.979-16.756 17.084h-.164c-.144.186-.287.347-.431.533-.154-.166-.267-.326-.369-.513h-.082c-.413-.915-.348-1.994-.472-3.035 4.41-5.776 4.245-13.591 4.943-20.94.072-1.242-.995-2.663-2.153-1.887-4.882 3.674-6.194 9.295-8.368 14.377l-.615-.615v-12.511c-.308-3.364-1.487-7.498-4.963-8.429-3.559 3.509-2.164 9.055-3.712 13.433-1.385 0-1.63-1.643-2.482-2.502-.461-.466-1.538-.459-1.846.328-.406 7.406-.424 14.609-.226 21.76.003.075-.003.15 0 .226.302 10.439 1.082 20.712 1.764 31.256-4.756 9.425-4.051 21.092-6.994 27.43s-4.942 9.238-7.875 11.743c-2.707 2.111-6.029-.068-9.27.636-1.784-2.194-1.63-5.237-2.482-7.814a23.78 23.78 0 0 0-.554-1.374h-.082c-4.775-10.675-16.851-13.687-26.313-17.494-1.082-.114-2.476-.37-3.794-.39s-2.548.203-3.322 1.026c3.405 1.718 6.973 3.669 9.291 7.178l-.615.636c-2.861-1.014-6.193-1.9-9.291-1.579 1.856 5.238 8.039 5.868 11.136 10.008l.103.8h.02c.401 3.522.479 7.486-2.912 9.619-2.553 1.718-3.702-1.711-5.866-1.866-2.174-.238-4.891 1.942-6.522-.636-.338-2.909-2.328-5.096-4.518-7.576s-4.307-5.267-3.214-9.405c-3.795-7.577-6.276-15.626-6.501-24.693 1.079-9.062 3.945-18.247 5.291-27.503h.041c1.025-7.194 1.118-14.433-1.313-21.678-2.318.155-2.625 2.977-4.635 3.753l-.615-.636c.154-4.999-.174-9.771-.943-14.377zm2.482 45.141c.154 4.689 1.231 9.376-.943 13.433.697-4.451-6.41-10.701.943-13.433zm82.98 3.733c1.784.083 1.63 2.124 2.482 3.138-.697 2.577-2.564 5.462-1.251 8.122 1.702-1.097 1.559-4.076 3.733-4.697-.318 3.364-1.559 7.048-3.733 10.008-2.318-4.761-2.154-11.261-1.231-16.571zm-88.866 3.753c1.938 2.505 1.63 6.482 2.482 9.68-1.702-2.577-4.574-6.399-2.482-9.68zm97.234 6.563c-.39 2.971-2.953 5.79-4.963 8.45h-.308c.236-3.053 2.871-6.411 5.271-8.45zm-100.64.328c2.092 1.325 3.322 4.123 4.943 6.235-1.241 6.169-2.246 12.031-.923 18.438-2.092.083-3.64-1.16-5.271-2.174-.769-1.097-1.077-2.346-.923-3.753 1.549-.704 2.953 2.644 4.655.615-.39-3.054-4.266-4.065-5.271-6.87 2.246-1.573 4.42 3.281 5.886 0-.933-2.66-6.122-3.659-4.656-7.178l3.097 1.559c.154-2.577-2.318-4.448-1.538-6.871zm101.25 5.312c1.005-.155 1.467 1.007 1.231 1.866-.625 3.053-4.409 5.159-6.809 7.199-1.015-3.447 3.107-6.332 5.578-9.065zm1.538 7.814c1.395.549 0 1.47 0 2.174-1.395 2.194-4.255 2.106-6.501 2.81.769-2.112 3.948-4.28 6.501-4.984zm-3.097 6.235c.462 0 1.323-.068 1.251.636.154 2.971-3.261 1.557-4.655 2.81-.851-1.801 2.092-2.825 3.404-3.445zm-63.476 3.445c3.097-.155 5.425 2.186 5.271 5.312-.697 1.563.38 4.448-2.174 4.676-2.164-.155-3.876-1.312-5.578-2.482 2.092-1.014 5.199 2.104 7.137-.328.39-3.198-2.799-4.911-4.655-7.178zm-23.832 3.753c2.225 3.116 1.189 7.966 3.261 11.424h.144a6.8 6.8 0 0 0 2.154 2.112c3.097 2.039 3.958 5.549 4.963 8.757.236 2.888-1.312 5.39-3.712 6.87-1.313.083-2.256-.849-2.174-2.174-.544-1.014 1.169-1.871-.308-2.502-1.62 1.097-3.107 3.364-5.271 2.195-.769-2.194 1.251-3.991 1.866-5.948-2.471-.311-4.255 3.823-7.424 1.866-.697-2.65 1.538-4.054 2.769-5.927-2.471-1.408-4.327 1.397-6.809 0 .154-2.277 3.948-3.051 5.886-4.697l-1.046-.697h-.287c-1.513-1.062-3.129-2.444-3.302-4.409 2.861-1.563 4.789 2.983 7.424.943.072-2.339-2.707-4.379-1.231-6.563 1.087.466 1.856 1.643 2.789 2.502 1.938-.549.226-2.501.308-3.753zm75.863.308c.543 1.408-1.159 2.656.308 3.753 1.702-.155 1.702-2.342 3.712-1.866 1.548 3.281-5.117 4.531-2.174 6.871 1.702-.621 3.712-2.579 5.578-.943-.057 1.711-1.536 2.293-2.707 3.097h-.287c-.461.362-.851.805-1.025 1.395 2.707.155 5.261 1.158 6.809 3.425.472 1.252-.933 1.714-1.866 1.559-2.328.466-4.727-.932-6.501 0 1.395 2.422 5.045 2.819 4.656 6.255-3.179 1.252-5.199-2.109-8.06-2.502-.779 2.267 2.953 3.453 2.482 5.948-2.861.942-4.953-1.968-7.117-3.138-.543 1.49.451 3.054 1.231 4.389-2.246 1.097-4.491-.546-5.578-2.502-3.097-4.451 2.717-7.502 4.04-11.26 1.033-1.023 1.789-2.161 2.4-3.363h.103c1.723-3.53 2.174-7.607 3.999-11.116zm-41.572 2.461c.387-.021.697.071.697.656.072.631-.082 1.644-.923 1.251h-.943v-1.866c.308.119.782-.02 1.169-.041zm8.737 5.661c1.508.683 2.687 1.742 3.569 2.994h.123c1.513 2.282 2.145 5.214 2.194 8.06-3.025 11.096-1.477 24.07 3.405 33.758l-1.231 7.814c-4.102-.621-1.169 4.361-2.482 6.235-.505 2.137-1.436 4.097-2.523 5.989h-.123c-.738 1.294-1.548 2.562-2.317 3.835l1.559.923c-1.856 5.941-4.255 11.958-9.598 16.264-6.112-3.757-8.439-10.78-10.214-17.187h2.154c-.154-1.273-.636-2.552-1.231-3.815h-.103c-.859-1.781-1.934-3.584-2.687-5.373-1.549-2.433 2.01-7.281-1.866-7.199l-.615.636c-6.04-11.096 4.491-20.627 3.712-32.199.851-2.029-2.01-5.622 1.866-5.312 5.415.155 10.142-2.735 13.003-7.506.887-1.373.932-3.241 1.272-4.902h.041c.297-1.284.8-2.414 2.092-3.015zm5.578 69.936c2.246 2.65 5.578 2.48 8.368 3.733 2.933 2.422 5.947 5.099 8.347 8.142-6.43-.549-15.33 3.188-19.197-4.389zm-26.108 1.866c1.254.077 2.112 1.365 2.256 5.004-3.323 7.028-11.997 6.096-18.889 5.62.39-2.267 3.794-4.292 5.886-5.927 3.3.804 7.987-4.865 10.747-4.697zm1.025 11.259c-3.948 5.31-9.752 8.749-14.233 14.069h-.943c.461-4.378 5.958-6.502 8.983-9.701zm19.812 0h.943c6.348 6.252 11.064 12.335 16.407 19.053.082 1.014-.011 1.964-.943 2.502-5.333-7.494-11.762-13.74-16.407-21.555zm4.348 0c5.651 4.058 10.203 9.447 15.156 14.685v.943c-5.651-4.378-10.439-10.318-15.156-15.628zm-5.578 2.174l13.618 19.381c-.154.787.39 1.801-.615 2.195-3.723-7.194-11.762-13.45-13.003-21.576zm19.34.513c1.654-.021 3.256.318 4.184 1.374-.308 1.014-.451 2.106-1.538 2.81-2.943 1.17-4.953-1.883-7.117-3.445 1.123-.352 2.817-.718 4.471-.738zm25.821.041c1.318-.021 2.481.2 3.138 1.333-.933 5.165-7.424 1.868-11.136 2.81.226-2.112 2.553-3.046 4.02-4.061 1.2.192 2.661-.061 3.979-.082zm-12.182.041c.881-.019 1.697.072 2.318.656.072 1.48-1.548 2.745-2.789 3.138-1.477.621-3.548.309-4.327-.943-.38-1.718 1.005-2.344 2.174-2.81.81.114 1.745-.022 2.625-.041zm-77.729.308c.931 0 1.871.116 2.646.349.851 1.325-.011 3.29-1.559 3.445-2.246-.228-3.722.554-5.578-.615.308-1.097.943-2.044 1.866-2.83.774-.233 1.694-.349 2.625-.349zm13.167 0c.774 0 1.553.116 2.174.349-1.784 1.014-3.568 5.64-6.83 3.445-.226-1.563 1.394-2.659 2.482-3.445.62-.233 1.4-.349 2.174-.349zm13.926.041c-1.784 6.014-10.142 9.767-13.003 15.936h-.615c1.938-6.407 8.972-10.936 13.618-15.936zm3.712 0c-2.164 7.111-8.265 12.663-11.444 19.381-.544.238-.861-.305-1.251-.615 3.487-6.573 7.588-13.456 12.695-18.766zm2.174 0c-.626 7.97-4.573 15.402-6.809 23.134-.933.859-2.092-.392-2.482-1.251 1.702-7.887 6.193-14.617 9.291-21.883zm-47.745.164c2.285-.09 5.13.627 7.178.144l.636.636c.072 1.49-1.548 2.734-2.789 3.117-2.707.155-6.973 1.337-8.675-1.251.444-2.015 1.874-2.576 3.651-2.646zm56.728 1.087h.615c2.635 6.635 7.814 12.27 9.291 19.381.308 1.097-.995 2.412-1.846 2.174-2.092-7.421-6.829-13.751-8.06-21.555zm-6.194 1.559c.072 6.728 3.333 16.264-4.02 20.632h-.943c-.379-7.732 2.717-14.298 4.963-20.632zm3.097 0h.923c2.636 6.417 3.887 13.746 3.733 20.94-9.137-3.913-3.497-14.212-4.655-20.94z" fill="#231f20"/></svg>