<svg xmlns="http://www.w3.org/2000/svg" viewBox="0 0 1200 600"  xmlns:v="https://vecta.io/nano"><clipPath id="A"><path d="M0 0v150h700v150H600zm0 300v50h300V0h300z"/></clipPath><path fill="#001e62" d="M0 0h1200v600H0z"/><g fill="none"><path d="M0,0 600,300M600,0 0,300" stroke="#fff" stroke-width="60"/><path d="M0,0 600,300M600,0 0,300" clip-path="url(#A)" stroke="#da291c" stroke-width="40"/><path d="M0,150H700M300,0V350" stroke="#fff" stroke-width="100"/><path d="M0,150H700M300,0V350" stroke="#da291c" stroke-width="60"/></g><path fill="#fff" d="M700 100h400v400H700z" paint-order="normal"/><g fill="#da291c"><path d="M867 100h66v400h-66z" paint-order="normal"/><path d="M1100 267v66H700v-66z" paint-order="normal"/></g><path d="M600 0v300H0v300h1200V0H600zm300 150a150 150 0 1 1 0 300 150 150 0 1 1 0-300z" fill="#001e62"/><g fill="#ffc828"><g stroke="#000" stroke-width=".479"><path d="M846.93 283.64s2.275 1.374 2.275 3.734c0 2.377-.441 3.215-.551 5.316-.131 2.125-.393 3.624.893 5.987 1.282 2.377 3.085 3.868 3.085 3.868l2.678-2.866c.634-.868 1.024-2.993.893-4.368-.114-1.358-.386-3.476 0-4.234.393-.741 2.826-4.609 2.699-5.487-.148-.868-2.812-6.704-2.812-6.704l3.316-.379.389-3.751 2.564.63.893-1.743 1.803.875.896-1.508 1.413.878 1.151-1.991 1.899 1.498.91-1.632 1.672 2.005 1.92-1.498 1.134 2.115 1.413-1.247 1.041 2.125 1.413-.989s.875 1.73.875 2.608v1.237s2.568 0 2.695.634c.131.617-.762 3.473-1.02 3.979-.262.499-1.544 2.487-1.544 2.487s1.413 2.125 1.672 2.993c.262.878.262 4.368 2.047 5.987s4.484 2.621 4.484 2.621l.272.989s1.399 1.126 4.095 1.126c2.678 0 7.81-1.87 19.846-3.996 12.049-2.115 15.637 0 17.943 1.002 2.292.989 5.897 2.869 8.072 2.869s4.481-1.25 4.481-3.238c0-2.008-2.175-3.366-5.129-3.996-2.94-.617-17.281.134-21 1.247-3.719 1.13-10.133 2.859-17.164 2.859-7.048 0-15.379-1.857-15.51-8.957s8.203-8.347 10.505-8.474c2.306-.134 5.639 0 6.921-1.002 1.265-.986 2.306-2.125 2.306-2.125l.52 1.881 1.654-1.991c.634-.741 2.568-1.619 3.705-2.115 1.168-.506 2.971-2.497 2.971-2.497s1.654 2.735 1.654 4.116c0 1.374-.893 3.862-2.826 4.85-1.913 1.002-5.373 1.498-8.572 1.743-3.202.261-8.592 0-9.354.127-.782.134-5.39.751-5.521 4.985-.114 4.237 4.239 5.109 5.763 5.243 1.561.111 8.72.986 10.526.111 1.785-.868 4.594-.868 4.856-2.363s.128-2.745.128-2.745 1.544-.114 2.306.63 1.672 1.881 1.672 1.881.896-.768 1.137-1.508c.276-.744.389-2.119.389-2.119s1.544.238 2.437 1.24l1.672 1.881s.503-.63 1.024-1.374.52-2.249.52-2.249 1.527.258 2.42 1.136c.91.868 1.672 2.115 1.672 2.115s.651-.758.896-1.508c.241-.741 0-1.988 0-1.988s1.916.503 2.695 1.12c.762.63 1.396 1.874 1.396 1.874s4.239-.872 7.179-.255c2.954.623 10.895.758 11.284 8.474.376 7.717-7.062 7.227-7.062 7.227s-.245 2.36 1.558 3.868c1.768 1.485 4.091 2.226 6.917 1.857 2.809-.372 5.232-2.732 7.031-2.859 1.789-.134 3.981.496 4.108 1.609.117 1.123.634 2.37.634 2.37s1.544 1.13 1.916 1.746c.389.63.634 1.485.634 1.485h-2.047s1.286.758 1.413 1.374c.148.63.262 2.122.262 2.122l-1.155.127s.131 1.991.389 2.859c.245.875 2.42 2.125 2.178 3.868-.262 1.746-1.675 2.621-2.568 3.366s-.893 2.859-.893 2.859-1.544-.372-1.93-1.113c-.376-.761-.507-5.615-.507-5.615s.131 1.877-.503 2.866c-.648 1.002-1.413.868-2.451 1.247-1.006.372-2.292 2.243-2.292 2.243s-1.168-1.002-1.168-2.119.779-2.487.779-2.487l1.155-2.249-1.934 2.008s-1.151-.389-2.047.107c-.893.506-2.044 1.25-2.044 1.25s-.651-.989 0-2.236c.631-1.24 1.413-1.374 1.672-2.005.245-.617.131-1.485.893-1.991.765-.499 2.306-.868 3.071-.741s1.803 0 1.916-1.25c.131-1.24-1.396-2.487-2.809-2.243-1.413.261-6.025 2.993-12.18 2.749-6.138-.261-7.941-4.24-8.837-5.987-.906-1.743-.114-4.737-2.433-6.094-2.306-1.374-5.635-1.746-7.162-.761-1.544 1.006-2.454 2.119-2.306 3.627.128 1.485 2.823 1.857 4.222 1.981 1.413.134 2.94.506 3.833 1.991.893 1.508.779 3.996.779 3.996l-2.437-.634.503 4.612s-1.541-.496-2.306-.372-.762 1.25-1.137 2.363c-.389 1.13-1.02 1.636-1.02 1.636s-.52-1.006-1.934-1.636c-1.413-.617-2.175 1.374-2.175 1.374s-1.024-.617-3.981-.499c-2.94.127-5.246 1.87-7.162 2.749-1.934.868-3.588 1.24-5.001 1.113-1.396-.124-3.085-.613-2.94-1.113.131-.506 2.306-1.508 2.306-1.508 0 .017-1.037-.111-2.564-.479-1.544-.389-2.437-.261-2.55-.761-.145-.506 1.527-1.358 2.175-1.736.634-.385 2.292-.868 2.42-1.374.131-.496-2.306-.741-2.175-1.24s1.658-1.247 2.437-1.508c.762-.245 2.175-1.485 4.091-1.113s2.809 1.485 4.095 1.619c1.279.127 2.32.372 4.367.251 2.061-.124 4.353.379 4.743-1.743.372-2.115-1.916-3.366-4.612-3.366s-2.178 1.492-5.001 1.361c-2.812-.111-3.964-2.363-4.222-4.22-.262-1.877 2.937-5.243 2.937-5.243s-2.306.134-4.612 1.247c-2.289 1.113-2.42 1.881-2.289 2.621.114.744-1.803 1.24-2.826.872-1.041-.372-2.809-.872-2.809-.127s.893 1.374.486 1.991c-.372.63-2.94.496-3.946.496-1.037 0-2.323-.238-2.323.617 0 .892 1.916 1.002 1.286 1.636-.651.613-3.071 1.247-5.897 1.247-2.809 0-6.007-1.619-6.007-1.619s2.55 3.104 1.785 4.72c-.779 1.636-1.672 1.874-2.306 2.38-.651.496-2.306.369-3.588.986-1.286.63-1.413.499-2.42 1.002-1.041.499-3.867 2.621-3.867 2.621s-.875-.392-1.006-.875c-.145-.499-.648-1.13-.648-1.13s-2.437 2.487-3.591 2.615c-1.151.134-.893-1.857-1.541-1.857-.634 0-3.833 2.487-3.833 2.487s-.148-2.243-.91-2.243-3.071 2.243-3.071 2.243-.762-2.487-3.977-2.615c-3.185-.134-4.467 1.485-6.511 1.374-2.065-.134-5.149-2.249-5.149-2.249s2.323-.496 2.451-1.113c.114-.634-3.715-1.508-3.715-2.253s3.326-1.002 3.715-1.616c.376-.634-1.803-1.619-1.541-2.246.258-.613 3.067.372 4.35-.503 1.286-.855 1.544-.744 2.309-.245s2.954 2.621 5.26 2.993c2.292.369 5.115 1.12 8.072.503 2.94-.63 8.186-2.494 8.186-2.494s-2.178 1.492-4.222-.127-1.789-2.249-2.699-2.621c-.893-.372-1.654.744-3.312.506-1.672-.245-4.87-3.238-4.87-3.238s-3.605.875-4.239.124 1.041-2.611.634-3.617c-.376-.986-4.598.634-4.743-.241-.114-.878 2.078-3.255 1.803-4.123-.245-.861-4.222.251-4.222-.617 0-.878 2.044-2.621 1.934-3.366-.131-.741-2.323-.134-2.699-.741-.389-.634 1.658-1.746 1.527-2.497-.114-.741-.534-2.44-2.192-3.443-1.672-.986-7.014-1.539-7.014-1.539l6.542-1.304s-1.475-.751-1.348-1.991c.117-1.247-4.756-.211-4.756-.211l8.379-2.859-6.786-.892s5.876-3.949 10.846-.436z"/><path d="M868.75 286.97s-2.192.238-2.94-.117c-.762-.389-1.737-2.316-1.151-2.377 1.151-.127 4.384.805 4.353 1.247-.131 1.247-1.027 5.481-1.027 5.481s.52-.499 1.417-.372 1.523 2.487 1.523 2.487.52-2.487 1.286-2.36c.779.117 1.803.369 1.803.369s-2.047-4.602-1.916-5.739c.114-1.113 4.35-1.24 4.35-1.24s-.517 1.498-1.672 2.005c-1.151.499-2.437 0-2.437 0"/><path d="M852.63 302.55l.424 5.742 5.211-2.427 2.712-4.405-2.712 4.405.665 5.497 4.76-2.638.91-4.626-.91 4.626 2.258 4.629 3.395-3.751.224-4.612-.224 4.612 4.301 3.751 2.485-5.062-1.348-4.193 1.348 4.193 5.67 2.407 1.348-4.834-2.94-4.405 2.94 4.405 7.241-1.539-3.622-8.149m-21.583-3.593s0 1.864.486 2.608c.52.758.393 1.877 1.041 2.132.651.245.765-1.374 1.527-1.264.779.134 0 1.508.648 2.621.634 1.136 1.041 2.122 2.178 2.249 1.151.127 1.803-1.374 1.93-2.621.114-1.24-.128-2.621.507-2.621.648 0 .52 1.881 1.151 1.881s0-2.253 1.024-2.869c1.024-.623 1.934-3.228 1.168-3.228-.793 0-.389 2.102-2.32 2.487-1.934.369-2.826 0-3.202-.758-.389-.744-1.024-.878-1.024-.878s.245.634-.372 1.25c-.651.63-.796.63-2.061.63-1.286 0-1.916-1.508-2.681-1.619z"/></g><path d="M778.28 316.12l4.925-11.484-11.603-4.638 11.602-4.638-4.924-11.484 11.484 4.925 4.638-11.603 4.638 11.603 11.484-4.925-4.925 11.484 11.603 4.638-11.603 4.638 4.925 11.484-11.484-4.925-4.638 11.603-4.638-11.603zm243.42 0l-4.925-11.484 11.602-4.638-11.602-4.638 4.924-11.484-11.484 4.925-4.638-11.603-4.638 11.603-11.484-4.925 4.925 11.484-11.603 4.638 11.603 4.638-4.925 11.484 11.484-4.925 4.638 11.603 4.638-11.603zm-105.58 105.6l-11.484-4.925-4.638 11.602-4.638-11.602-11.484 4.924 4.925-11.484-11.603-4.638 11.603-4.638-4.925-11.484 11.484 4.925 4.638-11.603 4.638 11.603 11.484-4.925-4.925 11.484 11.603 4.638-11.603 4.638zm0-243.44l-11.484 4.925-4.638-11.603-4.638 11.602-11.484-4.924 4.925 11.484-11.603 4.638 11.603 4.638-4.925 11.484 11.484-4.925 4.638 11.603 4.638-11.603 11.484 4.925-4.925-11.484 11.603-4.638-11.603-4.638z"/></g></svg>